<svg xmlns="http://www.w3.org/2000/svg" width="325.27" height="54.305" viewBox="0 0 325.27 54.305">
  <g id="レイヤー_2" data-name="レイヤー 2">
    <g id="ライン上">
      <g>
        <path d="M3.9,37.409a17.162,17.162,0,0,1-1.475,1.3A27.544,27.544,0,0,0,0,36.759a15.366,15.366,0,0,0,5.173-5.974l2.9.85a13.458,13.458,0,0,1-.975,1.75h15v2.624H19.745v3.2h3.249v2.65H19.745v3.174h2.9v2.649H.925V45.032H3.9V41.858H.55v-2.65H3.9ZM.3,53.005a12.325,12.325,0,0,0,2.8-4.8l2.874.7a13.683,13.683,0,0,1-2.849,5.249Zm6.223-13.8h1.8v-3.2h-1.8Zm0,5.824h1.8V41.858h-1.8Zm3.8,3.724a32.692,32.692,0,0,1,.625,4.674l-2.9.425a31.711,31.711,0,0,0-.475-4.774Zm2.325-9.548v-3.2H10.8v3.2Zm-1.85,2.65v3.174h1.85V41.858Zm4.524,6.8a27.851,27.851,0,0,1,1.45,4.649L13.8,53.88a26.6,26.6,0,0,0-1.274-4.749Zm1.7-12.647h-1.9v3.2h1.9Zm0,5.849h-1.9v3.174h1.9Zm3.3,6.248a33.892,33.892,0,0,1,3.149,5L20.42,54.13a32.215,32.215,0,0,0-2.949-5.124Z"/>
        <path d="M33.823,48.531a33.278,33.278,0,0,0-1.8-3.249v8.773H29.274V45.232A25.64,25.64,0,0,1,26.4,51.38a17.686,17.686,0,0,0-1.349-3.074,23.17,23.17,0,0,0,3.3-6.473H25.5V39.058h3.774V30.885h2.749v8.173h3.7v2.775h-3.7v.175c.725.724,3.1,3.524,3.624,4.223ZM26.6,38.608a24.758,24.758,0,0,0-1.125-5.773l2.074-.55a25.058,25.058,0,0,1,1.275,5.724Zm9.572-5.9c-.65,2-1.375,4.374-2,5.823L32.3,38.009a46.487,46.487,0,0,0,1.375-5.849Zm9.7,14.646v6.749h-2.8V47.856L36.1,49.106l-.45-2.775,7.423-1.324V30.76h2.8V44.507l2.549-.475.45,2.774Zm-8.548-9.073a20.9,20.9,0,0,1,4.2,2.875l-1.5,2.374a21.132,21.132,0,0,0-4.1-3.124Zm3.624-.9a20.105,20.105,0,0,0-3.874-3.25l1.425-2a18.8,18.8,0,0,1,3.974,3.024Z"/>
        <path d="M66.7,34.459c0,.55.025,1.15.025,1.8h3.124a19.3,19.3,0,0,0,2.6-.2v3.324c-.8-.025-1.749-.075-2.424-.075H66.8c.075,3.649.175,7.823.225,11.2.025,1.6-.9,2.525-2.8,2.525-1.525,0-2.925-.05-4.349-.15L59.6,49.631a21.213,21.213,0,0,0,3.324.3c.624,0,.874-.325.874-1.05,0-1.675,0-4.174-.049-6.749a34.361,34.361,0,0,1-10.2,8.448l-2.3-2.6a29.658,29.658,0,0,0,11-8.673H55.424c-.9,0-1.975.05-2.85.1V36.084a23.931,23.931,0,0,0,2.775.175h8.273q-.037-.975-.076-1.8c-.074-1.074-.15-1.874-.249-2.524h3.549A21.379,21.379,0,0,0,66.7,34.459Z"/>
        <path d="M87.472,46.331a23.535,23.535,0,0,0,9.1-9.722l1.949,3.524a26.581,26.581,0,0,1-9.248,9.248A27.077,27.077,0,0,1,80,52.905l-2.1-3.3A25.763,25.763,0,0,0,87.472,46.331Zm0-8.073-2.55,2.6a51.874,51.874,0,0,0-6.248-5.4l2.349-2.5A50.467,50.467,0,0,1,87.472,38.258Z"/>
        <path d="M122.37,41.083a17.959,17.959,0,0,1-3.7,6.923,18.718,18.718,0,0,1-8.922,5.4l-2.475-2.825a16.858,16.858,0,0,0,8.648-4.373,10.861,10.861,0,0,0,2.575-4.324H106.423c-.6,0-1.849.025-2.9.125v-3.25c1.05.075,2.125.15,2.9.15H118.8a5.274,5.274,0,0,0,1.825-.25l2.224,1.375A9.244,9.244,0,0,0,122.37,41.083ZM108.423,32.91h9.622a23.571,23.571,0,0,0,2.7-.125v3.224c-.675-.05-1.849-.075-2.749-.075h-9.573c-.8,0-1.875.025-2.6.075V32.785A21.047,21.047,0,0,0,108.423,32.91Z"/>
        <path d="M137.972,37.759a32.035,32.035,0,0,0,7.048-6.074l2.7,2.574A45.829,45.829,0,0,1,141,39.683v10.1a17.183,17.183,0,0,0,.225,3.274h-3.949a27.992,27.992,0,0,0,.175-3.274v-8a50.116,50.116,0,0,1-8.823,3.6l-1.574-3.15A40.192,40.192,0,0,0,137.972,37.759Z"/>
        <path d="M163.222,46.331a23.535,23.535,0,0,0,9.1-9.722l1.949,3.524a26.581,26.581,0,0,1-9.248,9.248,27.077,27.077,0,0,1-9.272,3.524l-2.1-3.3A25.763,25.763,0,0,0,163.222,46.331Zm0-8.073-2.55,2.6a51.874,51.874,0,0,0-6.248-5.4l2.349-2.5A50.467,50.467,0,0,1,163.222,38.258Z"/>
        <path d="M186.1,37.359h-9.273v-2.35H186.1Zm11.4,13.946c.4,0,.5-.45.549-3.549a8.134,8.134,0,0,0,2.5,1.125c-.225,4-.9,5.049-2.724,5.049H196.2c-2.2,0-2.7-.875-2.7-3.425V44.032h-1.3c-.3,4.224-1.175,7.9-5.1,10.2a8.159,8.159,0,0,0-1.724-2.2v1.1h-4.949v.975h-2.5V45.582h7.449V51.73c3.1-1.749,3.624-4.549,3.874-7.7h-2.275V35.309H188.9a21.44,21.44,0,0,0-1.625-3.574l2.6-.85a16.072,16.072,0,0,1,1.924,3.974l-1.275.45H195.8l-1.375-.4A26.337,26.337,0,0,0,195.9,30.76l3.074.75c-.6,1.4-1.274,2.774-1.8,3.8h2.174v8.723H196.32v6.449c0,.724.025.824.375.824Zm-12.3-10.5H178V38.583h7.2Zm-7.2,1.25h7.2v2.249H178Zm7.2-8.248h-7.049V31.56H185.2Zm-2.35,14.121h-2.424V50.78h2.424ZM196.3,37.859h-6.5v3.649h6.5Z"/>
        <path d="M205.774,47.406v2.15h-2.75V32.135h8.724V47.406Zm0-12.572v3.524H209V34.834ZM209,44.707v-3.7h-3.224v3.7Zm15.721,6c0,1.575-.324,2.375-1.3,2.85a11.173,11.173,0,0,1-4.5.55,10.211,10.211,0,0,0-1.05-2.875c1.35.075,2.874.05,3.3.025.45,0,.6-.15.6-.575v-4.4H215.9a12.778,12.778,0,0,1-4.773,8.023A11.152,11.152,0,0,0,208.9,52.33c4.2-3.1,4.574-7.748,4.574-11.547v-9h11.247Zm-2.949-7.1v-3.2H216.4v.375a27.583,27.583,0,0,1-.125,2.824ZM216.4,34.534v3.2h5.374v-3.2Z"/>
        <path d="M233.173,39.183a28.8,28.8,0,0,1-4.224,2.5,11.573,11.573,0,0,0-1.749-2.5,24.8,24.8,0,0,0,10.1-8.373h3.1a22.864,22.864,0,0,0,10.573,7.923,15.41,15.41,0,0,0-1.925,2.725,30.192,30.192,0,0,1-4.2-2.425v1.975H233.173Zm-4.423,3.9h20.669v2.75h-11.2c-.724,1.474-1.55,3.024-2.3,4.424,2.4-.075,4.973-.175,7.523-.275A29.943,29.943,0,0,0,241,47.431l2.624-1.374a33.57,33.57,0,0,1,5.723,6.423l-2.774,1.675a13.253,13.253,0,0,0-1-1.55c-5.873.325-12.047.575-16.3.775l-.4-2.9,3.773-.125a48.1,48.1,0,0,0,1.9-4.524h-5.8Zm15.021-4.8a24.317,24.317,0,0,1-4.8-4.623,22.733,22.733,0,0,1-4.574,4.623Z"/>
        <path d="M258.473,35.034a66.3,66.3,0,0,0-1.2,9.173,12.065,12.065,0,0,0,.1,1.625c.375-.85.774-1.725,1.125-2.55l1.549,1.225c-.7,2.074-1.525,4.8-1.8,6.123a7.424,7.424,0,0,0-.125,1.175c0,.275.024.675.049,1.025l-2.9.2a31.946,31.946,0,0,1-.975-8.173,69.694,69.694,0,0,1,1.05-9.9c.075-.7.225-1.649.25-2.449l3.5.3C258.9,33.335,258.573,34.584,258.473,35.034Zm6.174,12.222c0,1.1.95,1.775,3.5,1.775a29.527,29.527,0,0,0,6.273-.65l.05,3.374a35.38,35.38,0,0,1-6.448.475c-4.3,0-6.374-1.525-6.374-4.1a15.265,15.265,0,0,1,.425-3.249l2.875.275A8.478,8.478,0,0,0,264.647,47.256Zm9.048-12.8v3.225a67.074,67.074,0,0,1-10.748,0v-3.2A51.389,51.389,0,0,0,273.7,34.459Z"/>
        <path d="M295.445,41.308a17.079,17.079,0,0,0,5.949,4.024,11.587,11.587,0,0,0-1.924,2.349,19.844,19.844,0,0,1-7.374-6.373h-5.074a19.5,19.5,0,0,1-2.224,2.724,20.173,20.173,0,0,0,5.1-1.949l2.3,1.1a21.955,21.955,0,0,1-7.323,2.925c-.275-.325-.65-.775-1.025-1.15a20.514,20.514,0,0,1-4.324,2.924,14.366,14.366,0,0,0-2.174-2.3,16.312,16.312,0,0,0,6.048-4.274H278.25v-2.5h6.923c.275-.5.525-1.049.775-1.6-2.449.1-4.674.175-6.549.225l-.324-2.65c1.249-.025,2.7-.05,4.274-.075a25.14,25.14,0,0,0,2.224-3.924l3.274.825c-.7,1-1.474,2.075-2.224,3.024,2.224-.075,4.574-.125,6.923-.2-.6-.524-1.2-1-1.775-1.424l2.35-1.375a38.954,38.954,0,0,1,6.024,5.3l-2.55,1.524a16.181,16.181,0,0,0-1.475-1.649c-2.3.1-4.674.2-6.923.275a17.918,17.918,0,0,1-.75,1.724h12.422v2.5Zm2.35,7.323c-3.249,3.3-8.773,4.774-15.1,5.549a9.03,9.03,0,0,0-1.375-2.425c5.8-.5,11.2-1.724,13.846-4.3Zm-3.249-2.674c-2.45,1.949-6.324,3.274-9.973,4.049a8.27,8.27,0,0,0-1.574-2.1c3.3-.55,7.223-1.649,9.2-3.074Z"/>
        <path d="M314.822,35.259s0,.975-.025,1.35c-.225,10.647-.4,14.471-1.175,15.621a2.661,2.661,0,0,1-1.924,1.275,14.088,14.088,0,0,1-3.025.1,7.151,7.151,0,0,0-.849-2.975c1,.075,1.9.1,2.374.1a.907.907,0,0,0,.85-.449c.475-.675.675-3.775.825-12.123h-2.525C309.1,44.832,308.224,50.43,305,54.13a7.846,7.846,0,0,0-2.175-2.175c2.8-3.174,3.474-7.948,3.649-13.8h-2.9v-2.9H306.5c.025-1.325.025-2.7.025-4.124h2.924c0,1.4,0,2.775-.025,4.124Zm10.448-1.624v19.8H322.3V51.88h-3.224v1.725H316.2V33.635ZM322.3,49.006V36.484h-3.224V49.006Z"/>
      </g>
      <g>
        <polygon points="74.677 0 82.223 22.012 81.519 22.293 71.803 1.15 74.677 0"/>
        <polygon points="253.993 0 246.447 22.012 247.151 22.293 256.867 1.15 253.993 0"/>
        <g>
          <path d="M106.527,4.81V18.043h-2.093v-.807H96.606v.823H94.612V4.81h4.219a18.865,18.865,0,0,0,.445-2.159l2.373.264c-.247.659-.511,1.3-.774,1.895ZM96.606,6.689v1.7h7.828v-1.7Zm0,3.51v1.7h7.828V10.2Zm7.828,5.224V13.709H96.606v1.714Z"/>
          <path d="M121.489,16.033c.889,0,1.038-.347,1.17-2.275a5.852,5.852,0,0,0,1.944.808c-.264,2.653-.873,3.395-2.95,3.395h-3.18c-2.406,0-3.065-.627-3.065-2.736V13.182l-5.455.576-.231-1.895,5.686-.56V9.638c-1.17.182-2.341.33-3.461.445a6.352,6.352,0,0,0-.577-1.713,35.748,35.748,0,0,0,8.784-1.929l1.532,1.615a25.451,25.451,0,0,1-4.12,1.187v1.846l6.642-.66.23,1.813-6.872.725v2.225c0,.742.149.841,1.121.841Zm-9.427-8.026h-1.994V4.134h5.949V2.7h2.077V4.134h6.064V8.007h-2.093V5.98h-10Z"/>
          <path d="M133.484,4.991c-.115.5-.231,1.1-.346,1.7.544-.033,1.038-.066,1.384-.066,1.748,0,2.983.774,2.983,3.147a16.135,16.135,0,0,1-.939,6.048,2.632,2.632,0,0,1-2.7,1.516,10.691,10.691,0,0,1-1.977-.23l-.363-2.176a9.61,9.61,0,0,0,2.027.346,1.221,1.221,0,0,0,1.236-.708A13.118,13.118,0,0,0,135.445,10c0-1.318-.56-1.5-1.6-1.5-.264,0-.676.033-1.137.066a34.756,34.756,0,0,1-3.362,8.833l-2.142-.857A24.79,24.79,0,0,0,130.535,8.8c-.594.066-1.1.132-1.418.165-.461.082-1.334.2-1.829.28L127.09,7a15.969,15.969,0,0,0,1.764,0c.511-.017,1.285-.066,2.125-.132a18.3,18.3,0,0,0,.347-3.494l2.455.247C133.682,4.052,133.567,4.579,133.484,4.991ZM142.35,11.3l-2.093.972a18.938,18.938,0,0,0-2.768-6.262l1.961-.84A28.433,28.433,0,0,1,142.35,11.3Z"/>
          <path d="M146.8,10.545a8.066,8.066,0,0,1,4.862-1.566c2.883,0,4.564,1.78,4.564,3.774,0,3-2.373,5.306-9.228,4.73l-.626-2.159c4.943.676,7.564-.527,7.564-2.62,0-1.072-1.022-1.863-2.456-1.863a5.868,5.868,0,0,0-4.581,1.945,4.006,4.006,0,0,0-.61.956l-1.9-.478a60.626,60.626,0,0,0,.824-6.888l2.208.313C147.21,7.6,146.914,9.606,146.8,10.545Zm7.119-5.883-.494,2.01c-1.665-.214-5.34-.989-6.625-1.318l.528-1.978A50.339,50.339,0,0,0,153.917,4.662Z"/>
          <path d="M170.3,9.622a11.253,11.253,0,0,0,3.923,2.653,7.7,7.7,0,0,0-1.269,1.549,13.078,13.078,0,0,1-4.862-4.2h-3.345a12.894,12.894,0,0,1-1.467,1.8,13.255,13.255,0,0,0,3.362-1.285l1.516.725a14.49,14.49,0,0,1-4.828,1.928c-.181-.214-.429-.511-.676-.758a13.542,13.542,0,0,1-2.851,1.928,9.513,9.513,0,0,0-1.433-1.516,10.758,10.758,0,0,0,3.988-2.818h-3.4V7.974h4.565c.182-.33.347-.692.512-1.055-1.616.066-3.082.116-4.318.149L159.5,5.321c.825-.017,1.78-.033,2.819-.05a16.549,16.549,0,0,0,1.466-2.587l2.159.544c-.461.659-.972,1.368-1.467,1.994,1.467-.049,3.016-.082,4.565-.132-.4-.346-.791-.659-1.17-.939l1.549-.907A25.7,25.7,0,0,1,173.4,6.738l-1.681,1a10.636,10.636,0,0,0-.972-1.087c-1.516.066-3.082.132-4.565.181a11.919,11.919,0,0,1-.5,1.137h8.191V9.622Zm1.55,4.828c-2.142,2.176-5.784,3.148-9.954,3.659a5.975,5.975,0,0,0-.906-1.6c3.823-.329,7.383-1.137,9.129-2.834ZM169.7,12.687a16.694,16.694,0,0,1-6.576,2.67,5.424,5.424,0,0,0-1.038-1.384,16.611,16.611,0,0,0,6.064-2.027Z"/>
          <path d="M183.066,5.634s0,.643-.016.89c-.148,7.02-.263,9.541-.775,10.3a1.753,1.753,0,0,1-1.269.84,9.264,9.264,0,0,1-1.993.066,4.741,4.741,0,0,0-.561-1.961c.659.049,1.253.066,1.566.066a.6.6,0,0,0,.56-.3c.313-.445.445-2.488.544-7.992h-1.664c-.166,4.4-.742,8.091-2.868,10.53a5.166,5.166,0,0,0-1.434-1.434c1.846-2.093,2.291-5.24,2.406-9.1h-1.911V5.634h1.928c.016-.873.016-1.78.016-2.719h1.928c0,.923,0,1.829-.016,2.719Zm6.889-1.071V17.615h-1.961V16.593h-2.126V17.73h-1.895V4.563ZM187.994,14.7V6.441h-2.126V14.7Z"/>
          <path d="M207.109,5.766h-1.9v9.822c0,1.186-.28,1.763-1.055,2.092a11.113,11.113,0,0,1-3.724.363,8.89,8.89,0,0,0-.808-2.076c1.17.066,2.6.049,3,.049.379,0,.528-.115.528-.461V5.766H192.261V3.788h14.848Zm-11.421,8.223v1.252h-1.911V7.611h6.987v6.378Zm0-4.515V12.11h3.132V9.474Z"/>
          <path d="M214.968,3.788A15.744,15.744,0,0,1,216.962,7.6l-1.8.725a6.06,6.06,0,0,0-.3-.873c-2.175.148-4.416.28-6.1.379l-.164-1.862c.4,0,.824-.017,1.285-.033a25.988,25.988,0,0,0,1.2-3.313l2.044.412c-.379.956-.824,1.945-1.236,2.818l2.191-.1c-.247-.461-.511-.923-.774-1.351Zm.824,12.294c0,.857-.165,1.335-.709,1.615a4.883,4.883,0,0,1-2.307.33,8.1,8.1,0,0,0-.626-1.731,13.533,13.533,0,0,0,1.45,0c.2,0,.264-.049.264-.247v-1.1h-2.472v3.114h-1.813V8.6h6.213Zm-4.4-5.867v.857h2.472v-.857Zm2.472,3.28v-.973h-2.472V13.5Zm5.619-3.412c-1.928,0-2.389-.576-2.389-2.389V2.734h1.945V5.09A25.446,25.446,0,0,0,222,3.722l1.253,1.418a31.189,31.189,0,0,1-4.218,1.549v.972c0,.593.1.659.724.659h1.8c.527,0,.643-.247.708-1.681A5.4,5.4,0,0,0,224,7.364c-.214,2.11-.726,2.719-2.242,2.719Zm2.176,6.164c.56,0,.675-.313.758-1.978a6.1,6.1,0,0,0,1.713.725c-.213,2.324-.708,2.967-2.29,2.967H219.5c-1.928,0-2.406-.561-2.406-2.373V10.413h1.928v2.225a18.7,18.7,0,0,0,3.1-1.549l1.3,1.433a24.907,24.907,0,0,1-4.4,1.747v1.319c0,.576.115.659.758.659Z"/>
          <path d="M228.442,16.061a1.714,1.714,0,1,1,1.713,1.714A1.662,1.662,0,0,1,228.442,16.061Zm.194-10.124-.1-2.9h3.232l-.1,2.9-.526,6.659h-1.986Z"/>
        </g>
      </g>
    </g>
  </g>
</svg>
