<svg xmlns="http://www.w3.org/2000/svg" width="274.413" height="110.991" viewBox="0 0 274.413 110.991">
  <defs>
    <style>
      .cls-1 {
        fill: #ffda00;
      }

      .cls-2 {
        fill: #fff;
      }
    </style>
  </defs>
  <g id="レイヤー_2" data-name="レイヤー 2">
    <g id="ライン上">
      <g>
        <g>
          <path class="cls-1" d="M225.181,2H49.233A47.233,47.233,0,0,0,2,49.233H2A47.233,47.233,0,0,0,49.233,96.466h79.96l8.014,12.525,8.013-12.525h79.961a47.232,47.232,0,0,0,47.232-47.233h0A47.232,47.232,0,0,0,225.181,2Z"/>
          <path class="cls-2" d="M137.207,110.991a2,2,0,0,1-1.685-.922l-7.423-11.6H49.233A49.233,49.233,0,0,1,49.233,0H225.181a49.233,49.233,0,0,1,0,98.466H146.315l-7.423,11.6A2,2,0,0,1,137.207,110.991ZM49.233,4a45.233,45.233,0,0,0,0,90.466h79.96a2,2,0,0,1,1.685.922l6.329,9.892,6.328-9.892a2,2,0,0,1,1.685-.922h79.961a45.233,45.233,0,0,0,0-90.466Z"/>
        </g>
        <g>
          <path d="M53.183,32.519c1.518,4.484,4.3,8.094,8.6,9.841a11.028,11.028,0,0,0-2.024,2.576c-4.162-1.955-6.829-5.312-8.623-9.75a15.823,15.823,0,0,1-8.6,9.772,8.124,8.124,0,0,0-2.046-2.322,13.785,13.785,0,0,0,8.347-10.117h-7.91V29.69H49.3c.23-2.161.206-4.254.23-6.139h2.989c-.023,1.885-.046,4-.276,6.139h9.037v2.829Z"/>
          <path d="M85.013,39H76.16v3.059c0,1.425-.3,2.138-1.426,2.529a13.938,13.938,0,0,1-4.461.437,12.182,12.182,0,0,0-1.127-2.668c1.472.07,3.174.07,3.634.047.483,0,.6-.093.6-.414V39h-8.83V36.474h8.83V34.979h1.311a15.559,15.559,0,0,0,1.771-1.265h-7.8V31.346H78.988l.6-.138,1.725,1.334a21.953,21.953,0,0,1-4.944,3.932h8.646ZM67.422,32.749H64.846V27.161h3.128a19.348,19.348,0,0,0-1.587-2.369l2.322-1.034A12.511,12.511,0,0,1,70.8,26.77l-.828.391h3.61a15.937,15.937,0,0,0-1.448-2.874l2.414-.874a13.464,13.464,0,0,1,1.794,3.311l-1.1.437h3.472a19.219,19.219,0,0,0,1.978-3.5l2.966.9c-.62.9-1.287,1.794-1.931,2.6h3.058v5.588h-2.69V29.575H67.422Z"/>
          <path d="M108.841,41.671v2.69H88.168v-2.69h8.876V37.049H90.813V34.4h6.231V30.357H92.285a18.946,18.946,0,0,1-2.139,3.334,21.821,21.821,0,0,0-2.46-1.632,19.8,19.8,0,0,0,4.07-8.232l2.828.62c-.322,1.1-.69,2.185-1.081,3.243h3.541V23.551h2.875V27.69h7.749v2.667H99.919V34.4h6.875v2.645H99.919v4.622Z"/>
          <path d="M115.791,34.611c-.943-.667-2.921-1.747-4.277-2.483l1.471-2.024c1.265.621,3.311,1.61,4.323,2.23Zm-3.956,8.279a68.053,68.053,0,0,0,4.37-7.244l2,1.84c-1.219,2.414-2.667,5.035-4.07,7.266Zm4.944-14.557a47.823,47.823,0,0,0-4.185-2.529l1.541-1.977c1.287.643,3.288,1.655,4.277,2.3Zm10.187,4.484v2.9h4.691V44.89h-2.6v-.828h-6.922v.943h-2.46v-9.29h4.691v-2.9h-6.117V30.2h6.117v-2.69c-1.518.23-3.035.39-4.484.529a9.639,9.639,0,0,0-.759-2.346,45.236,45.236,0,0,0,10.738-2.161l2.116,2.161a29.386,29.386,0,0,1-5.013,1.357V30.2h5.841v2.621Zm2.093,5.381h-6.922v3.381h6.922Z"/>
          <path d="M146.081,41.257c.873-.115,1.517-.23,2.115-.368,2.92-.69,5.174-2.783,5.174-6.094,0-3.15-1.7-5.5-4.76-6.024a49.343,49.343,0,0,1-1.358,6.185c-1.356,4.6-3.334,7.4-5.817,7.4-2.507,0-4.644-2.782-4.644-6.622,0-5.243,4.575-9.75,10.485-9.75,5.634,0,9.2,3.932,9.2,8.9,0,4.783-2.943,8.187-8.692,9.06Zm-1.772-6.9a36.52,36.52,0,0,0,1.219-5.519,7.142,7.142,0,0,0-5.772,6.6c0,2.3.92,3.426,1.771,3.426C142.47,38.865,143.39,37.439,144.309,34.358Z"/>
          <path d="M161.883,28.288a16.748,16.748,0,0,1-1.127,6.576l-1.794-.8a15.258,15.258,0,0,0,1.081-6Zm4.093,4.116a16.117,16.117,0,0,0-1.127-3.381V44.982h-2.643V23.528h2.643v4.391l1.266-.551a16.991,16.991,0,0,1,1.655,4.162Zm2.691-1.426a23.915,23.915,0,0,0-1.978-5.5l2.322-.851a21.421,21.421,0,0,1,2.139,5.381Zm8.738,1.219h2.69V44.729h-2.69v-1.2h-7.588v1.241H167.2V32.243h2.622V41.05h7.588Zm-1.518,7.887a16.772,16.772,0,0,0-1.816-1.955,16.84,16.84,0,0,1-2.231,2.921,15.264,15.264,0,0,0-2-1.541,13.008,13.008,0,0,0,2.392-2.989c-.782-.644-1.564-1.242-2.276-1.771l1.356-1.839c.621.437,1.311.943,2,1.448a20.39,20.39,0,0,0,.92-2.667l2.414.529a25.723,25.723,0,0,1-1.4,3.7,15.632,15.632,0,0,1,2.138,2.046Zm-3.22-9.934a28.38,28.38,0,0,0-1.448-5.656l2.392-.667a27.029,27.029,0,0,1,1.587,5.518Zm7.819-5.38a28.92,28.92,0,0,1-3.127,7.22,16.686,16.686,0,0,0-2.667-1.242,20.269,20.269,0,0,0,2.966-6.6Z"/>
          <path d="M202.819,39.946c-.6-.529-1.265-1.081-1.954-1.587a11.4,11.4,0,0,1-5.773,6.163l-2.437-1.978a9.821,9.821,0,0,0,5.795-5.725,15.967,15.967,0,0,0-5.335-1.84,47.175,47.175,0,0,1-2.645,5.473,3.89,3.89,0,0,1-3.541,2,3.4,3.4,0,0,1-3.5-3.68c0-3.518,3.2-6.231,7.773-6.439.643-1.471,1.288-3.012,1.816-4.092-.9.023-2.852.091-3.886.16-.483.024-1.288.116-1.863.207l-.114-2.943a18.4,18.4,0,0,0,1.885.092c1.288,0,3.725-.092,4.783-.184a5.654,5.654,0,0,0,1.541-.345l1.816,1.426a5.331,5.331,0,0,0-.759.966A43.986,43.986,0,0,0,194.2,32.5a19.965,19.965,0,0,1,4.9,1.471c.023-.276.046-.529.069-.781a14.877,14.877,0,0,0-.023-2.484l2.989.345a37.253,37.253,0,0,1-.437,4.231c.943.529,1.77,1.081,2.437,1.518Zm-12.785-4.99c-2.53.391-3.909,1.932-3.909,3.357,0,.645.39,1.081.85,1.081s.782-.207,1.2-.782A29.366,29.366,0,0,0,190.034,34.956Z"/>
          <path d="M211.287,25.988c.207.414.667,1.357.92,1.771.344.667.712,1.4,1.057,2.161,2.76-1.218,5.519-2.3,7.842-2.3,3.541,0,5.656,2.138,5.656,4.783,0,3.2-2.184,5.2-5.679,5.2a11.016,11.016,0,0,1-3.5-.644l.069-2.852a8.413,8.413,0,0,0,3.128.759c1.747,0,2.966-.92,2.966-2.552,0-1.173-.989-2.116-2.713-2.116-1.771,0-4.254.943-6.692,2.07l.644,1.4c1.057,2.484,2.805,7.359,3.587,9.912l-3.151.8a68.588,68.588,0,0,0-3.057-9.451l-.6-1.4c-1.632.8-3.081,1.587-4.047,2.024l-1.333-2.92a13.573,13.573,0,0,0,2.253-.736c.667-.253,1.357-.552,2.047-.851-.345-.69-.667-1.334-1.012-1.932a18.985,18.985,0,0,0-1.334-2ZM217.2,28.1a33.182,33.182,0,0,0-2.967-2.714l2.093-1.472a35.093,35.093,0,0,1,3.035,2.622Z"/>
          <path d="M59.823,67.79c-.6.045-1.54.207-2.414.345-1.1.184-2.967.483-4.99.8.368,1.885.69,3.426.828,4.139.161.689.391,1.517.6,2.254l-3.311.6c-.116-.874-.184-1.655-.323-2.322-.114-.667-.413-2.254-.781-4.186-2.346.391-4.507.759-5.5.944s-1.771.344-2.3.482l-.643-3.081c.62-.023,1.655-.161,2.391-.253,1.058-.161,3.2-.506,5.519-.874l-.69-3.68c-2.023.323-3.794.622-4.507.737-.8.161-1.426.3-2.116.482l-.62-3.173c.736-.023,1.425-.069,2.138-.161.8-.092,2.576-.345,4.553-.667-.184-.966-.345-1.724-.414-2.092-.138-.644-.3-1.2-.46-1.748l3.242-.529c.07.46.139,1.242.254,1.794.046.322.183,1.081.367,2.115,1.955-.321,3.7-.6,4.53-.759.736-.137,1.61-.321,2.162-.482l.552,3.012c-.506.047-1.426.184-2.116.276l-4.6.736.713,3.656c2.069-.345,3.955-.644,4.99-.851.9-.183,1.748-.368,2.346-.552Z"/>
          <path d="M73.993,69.376a20.29,20.29,0,0,0,3.381-4.138c-.552.114-2.829.574-5.312,1.1.874,3.151,1.839,6.692,2.207,7.887.138.414.437,1.426.621,1.886l-3.127.759a13.447,13.447,0,0,0-.414-2c-.345-1.243-1.288-4.807-2.116-7.956-1.931.413-3.61.758-4.3.918l-.713-2.758c.736-.07,1.357-.139,2.116-.277.322-.046,1.15-.183,2.207-.39-.23-.9-.437-1.633-.6-2.139a8.078,8.078,0,0,0-.644-1.633l3.081-.735c.092.552.23,1.149.368,1.747l.621,2.23c2.92-.551,6.14-1.172,7.036-1.379a4.384,4.384,0,0,0,1.173-.368l1.839,1.311a36.179,36.179,0,0,1-4.9,7.2Z"/>
          <path d="M89.979,56.868c-.045.506-.068,1.011-.068,1.747v7.772c0,.575.023,1.472.068,2h-3.4c.023-.437.115-1.334.115-2.024V58.615a15.626,15.626,0,0,0-.092-1.747Zm10.6-.207c-.046.643-.092,1.379-.092,2.3v4.554c0,4.944-.966,7.059-2.667,8.945a13.366,13.366,0,0,1-5.588,3.334l-2.415-2.53a10.755,10.755,0,0,0,5.634-2.9c1.564-1.725,1.863-3.449,1.863-7.037v-4.37a16.2,16.2,0,0,0-.138-2.3Z"/>
          <path d="M126.385,58.937a11.676,11.676,0,0,0-.9,1.2,23.121,23.121,0,0,1-5.542,6.3l-2.368-1.908a13.682,13.682,0,0,0,4.231-4.277h-11.98c-.966,0-1.725.069-2.806.161v-3.2a18.234,18.234,0,0,0,2.806.23h12.394a11.377,11.377,0,0,0,2.322-.207ZM117,62.042c0,5.7-.115,10.393-6.393,13.75l-2.667-2.184a9.1,9.1,0,0,0,2.414-1.265c2.921-2.024,3.473-4.462,3.473-8.232a12.73,12.73,0,0,0-.161-2.069Z"/>
          <path d="M145.407,64.41a8.473,8.473,0,0,1,2.208,5.472c0,3.427-3.082,5.91-8.072,5.91-3.587,0-6.117-1.564-6.117-5.358,0-.552.07-1.356.161-2.3a25.442,25.442,0,0,1-4.369-.76l.161-2.758a19.389,19.389,0,0,0,4.484.9c.138-1.012.254-2.069.391-3.1a28.345,28.345,0,0,1-4.53-.8l.161-2.645a21.1,21.1,0,0,0,4.668.852c.092-.69.138-1.311.184-1.817a14.193,14.193,0,0,0,.046-2.024l3.2.185c-.184.827-.3,1.426-.391,2.023-.068.391-.137.989-.253,1.725a33.4,33.4,0,0,0,4.186-.277l-.092,2.714a40.8,40.8,0,0,1-4.438.207c-.138,1.012-.277,2.092-.391,3.1h.16a44.841,44.841,0,0,0,4.576-.276l-.068,2.713c-1.288.116-2.622.207-4.024.207h-.92c-.046.667-.092,1.243-.092,1.657,0,1.862,1.149,2.9,3.4,2.9,3.173,0,4.921-1.449,4.921-3.335A6.323,6.323,0,0,0,142.21,65.1Z"/>
          <path d="M151.644,58.914h8.738v2.162h-8.738Zm8.095,16.671h-4.783v.9h-2.3V68.641h7.083Zm-.115-11.336h-6.9V62.2h6.9Zm-6.9,1.149h6.9v2.07h-6.9Zm6.921-7.588h-6.783V55.741h6.783ZM154.956,70.8v2.621h2.46V70.8Zm13.313-6.576v3.035h4.024v9.152h-2.736V75.4h-5.22v1.1h-2.6V67.261h3.748V64.226h-4.944V61.673h4.944v-2.8c-1.287.161-2.6.276-3.818.368a8.91,8.91,0,0,0-.735-2.3,50.175,50.175,0,0,0,9.75-1.679l1.932,2.277a34.976,34.976,0,0,1-4.347.943v3.2h4.944v2.553Zm1.288,5.5h-5.22v3.22h5.22Z"/>
          <path d="M192.581,56.545a19.4,19.4,0,0,0-.138,1.955c-.024.9-.046,1.7-.069,2.46.621-.045,1.2-.091,1.724-.115.621-.046,1.518-.115,2.185-.161V63.49c-.391-.023-1.586,0-2.207.023-.484.023-1.081.046-1.748.092a39.823,39.823,0,0,1-.345,4.553c-.23,1.2-.805,1.5-1.978,1.5a28.588,28.588,0,0,1-3.425-.346l.068-2.506a14.21,14.21,0,0,0,2.093.276c.46,0,.643-.092.713-.529a26.286,26.286,0,0,0,.161-2.736c-2,.161-4.232.367-6.186.574-.023,2.093-.046,4.186,0,5.152.069,2.23.253,2.736,3.679,2.736a42.355,42.355,0,0,0,6.807-.6L193.8,74.8a63.952,63.952,0,0,1-6.484.368c-5.91,0-6.622-1.242-6.715-5.173-.022-.966-.022-3.174-.022-5.313l-1.541.161c-.713.092-2.139.322-2.737.414l-.3-2.92c.644,0,1.7-.046,2.852-.138l1.725-.16v-2.3a17.182,17.182,0,0,0-.185-2.53h3.22a18.016,18.016,0,0,0-.138,2.369c0,.529,0,1.288-.023,2.184,1.931-.183,4.139-.39,6.209-.575V58.615a17.639,17.639,0,0,0-.161-2.07Z"/>
          <path d="M214.661,58.73q-.828.518-1.587,1.034c-1.219.852-3.611,2.875-5.036,4.025a7.652,7.652,0,0,1,2.138-.253c3.864,0,6.807,2.415,6.807,5.725,0,3.588-2.736,6.439-8.233,6.439-3.172,0-5.564-1.449-5.564-3.725a3.826,3.826,0,0,1,4.093-3.541,4.585,4.585,0,0,1,4.852,3.886,3.321,3.321,0,0,0,1.863-3.1c0-2.046-2.07-3.425-4.714-3.425-3.5,0-5.772,1.862-8.209,4.622L199,68.273c1.611-1.311,4.347-3.634,5.7-4.737,1.264-1.058,3.632-2.966,4.759-3.955-1.172.023-4.3.161-5.5.252a15.228,15.228,0,0,0-1.862.184l-.092-2.966a20.514,20.514,0,0,0,2.07.116c1.2,0,6.071-.116,7.358-.231a11.03,11.03,0,0,0,1.748-.229Zm-5.152,14.326c-.137-1.472-.988-2.437-2.23-2.437-.851,0-1.4.506-1.4,1.08,0,.851.966,1.426,2.3,1.426A11.989,11.989,0,0,0,209.509,73.056Z"/>
          <path d="M223.512,73.33a2.707,2.707,0,0,1,5.408,0,2.709,2.709,0,0,1-5.408,0Zm.442-13.26-.1-3.874h4.758l-.13,3.874-.91,8.891H224.89Z"/>
        </g>
      </g>
    </g>
  </g>
</svg>
