<?xml version="1.0" encoding="UTF-8"?>
<svg id="_イヤー_2" data-name="レイヤー 2" xmlns="http://www.w3.org/2000/svg" viewBox="0 0 131.23 135">
  <g id="_イン上" data-name="ライン上">
    <rect x="7" y="104.83" width="124.23" height="30.17" rx="15.09" ry="15.09"/>
    <g>
      <circle cx="70.87" cy="67.89" r="59.53"/>
      <circle cx="64.51" cy="61.53" r="59.53" fill="#fff"/>
      <circle cx="64.51" cy="61.53" r="59.53" fill="none" stroke="#000" stroke-width="4"/>
    </g>
    <polygon points="97.69 53.74 22.92 53.74 30.54 36.04 105.31 36.04 97.69 53.74" fill="#ffd400"/>
    <polygon points="97.69 86.71 22.92 86.71 30.54 69 105.31 69 97.69 86.71" fill="#ffd400"/>
    <g>
      <path d="M26.51,31.57c1.92-1.08,2.88-2.31,2.91-4.29-.09,.03-.21,.03-.3,.03-1.29,0-2.4-.87-2.4-2.31,0-1.53,.99-2.52,2.4-2.52,1.89,0,2.91,1.5,2.91,4.08,0,3.09-1.5,5.4-4.53,6.93l-.99-1.92Z"/>
      <path d="M36.41,43.66c6.03-5.4,9.6-9.57,9.6-12.99,0-2.25-1.23-3.6-3.33-3.6-1.62,0-2.97,1.05-4.08,2.28l-2.4-2.4c2.04-2.16,4.02-3.36,7.05-3.36,4.2,0,6.99,2.7,6.99,6.84s-3.33,8.34-7.38,12.3c1.11-.12,2.58-.24,3.6-.24h4.83v3.72h-14.88v-2.55Z"/>
      <path d="M55.28,43.66c6.03-5.4,9.6-9.57,9.6-12.99,0-2.25-1.23-3.6-3.33-3.6-1.62,0-2.97,1.05-4.08,2.28l-2.4-2.4c2.04-2.16,4.02-3.36,7.05-3.36,4.2,0,6.99,2.7,6.99,6.84s-3.33,8.34-7.38,12.3c1.11-.12,2.58-.24,3.6-.24h4.83v3.72h-14.88v-2.55Z"/>
      <path d="M97.64,24.61c-1.44,3.09-3.54,5.67-6.09,7.8,3.18,1.56,6.84,2.73,10.74,3.39-.81,.81-1.8,2.34-2.31,3.3-4.26-.9-8.16-2.37-11.58-4.35-3.87,2.46-8.4,4.14-13.05,5.25-.36-.99-1.11-2.46-1.8-3.27,4.11-.78,8.16-2.16,11.61-4.14-1.35-1.02-2.61-2.16-3.72-3.36-1.47,1.35-2.97,2.52-4.47,3.48-.66-.66-2.1-1.98-2.88-2.58,3.93-2.1,7.74-5.7,9.93-9.51l3.48,1.23c-.3,.51-.63,1.02-.96,1.5h7.98l.63-.18,2.49,1.44Zm-17.28,17.58c5.55,.66,12.21,2.16,16.62,3.48l-2.04,3.39c-4.08-1.44-11.07-3-16.68-3.78l2.1-3.09Zm4.74-5.58c3,.72,6.57,2.07,8.73,3.21l-1.95,2.85c-2.07-1.2-5.73-2.7-8.7-3.48l1.92-2.58Zm-1.29-9.81c1.2,1.38,2.7,2.64,4.44,3.75,1.56-1.2,2.91-2.52,3.99-4.02h-8.19l-.24,.27Z"/>
      <path d="M105.65,50.29c1.86-.81,2.97-2.25,3-4.08-.12,.03-.21,.03-.33,.03-1.05,0-2.01-.66-2.01-1.92,0-1.17,.96-1.92,2.07-1.92,1.44,0,2.31,1.23,2.31,3.24,0,2.88-1.68,5.13-4.38,6.27l-.66-1.62Z"/>
      <path d="M26.51,65.57c1.92-1.08,2.88-2.31,2.91-4.29-.09,.03-.21,.03-.3,.03-1.29,0-2.4-.87-2.4-2.31,0-1.53,.99-2.52,2.4-2.52,1.89,0,2.91,1.5,2.91,4.08,0,3.09-1.5,5.4-4.53,6.93l-.99-1.92Z"/>
      <path d="M36.41,77.66c6.03-5.4,9.6-9.57,9.6-12.99,0-2.25-1.23-3.6-3.33-3.6-1.62,0-2.97,1.05-4.08,2.28l-2.4-2.4c2.04-2.16,4.02-3.36,7.05-3.36,4.2,0,6.99,2.7,6.99,6.84s-3.33,8.34-7.38,12.3c1.11-.12,2.58-.24,3.6-.24h4.83v3.72h-14.88v-2.55Z"/>
      <path d="M54.77,77.54l2.07-2.79c1.32,1.29,2.94,2.28,4.95,2.28,2.25,0,3.78-1.11,3.78-3.09,0-2.19-1.29-3.54-6.12-3.54v-3.18c4.08,0,5.4-1.41,5.4-3.39,0-1.74-1.08-2.76-2.97-2.79-1.59,.03-2.88,.78-4.2,1.98l-2.25-2.7c1.92-1.68,4.05-2.73,6.66-2.73,4.29,0,7.2,2.1,7.2,5.91,0,2.4-1.35,4.14-3.72,5.07v.15c2.52,.69,4.44,2.55,4.44,5.46,0,4.08-3.57,6.45-7.8,6.45-3.51,0-5.88-1.32-7.44-3.09Z"/>
      <path d="M95.78,68.42c1.77,1.95,3.99,3.51,6.48,4.5-.81,.69-1.86,2.07-2.4,2.97-1.44-.66-2.76-1.5-3.96-2.49v9.27h-3.66v-.78h-8.85v.9h-3.54v-8.88c-1.2,.96-2.52,1.86-3.99,2.64-.45-.9-1.5-2.25-2.31-2.85,2.88-1.41,5.1-3.21,6.81-5.28h-6.03v-2.88h7.98c.27-.48,.54-.99,.75-1.5h-6.15v-2.82h7.2c.15-.48,.27-.99,.39-1.47h-8.58v-2.85h9.09c.09-.69,.15-1.41,.21-2.1l3.66,.27c-.06,.6-.12,1.23-.21,1.83h11.16v2.85h-11.67c-.12,.48-.24,.99-.36,1.47h11.04v2.82h-6.09c.27,.51,.54,1.02,.84,1.5h7.86v2.88h-5.67Zm-3.54,4.29h-8.85v1.86h8.85v-1.86Zm0,6.42v-2.01h-8.85v2.01h8.85Zm-7.53-10.71c-.33,.51-.69,1.02-1.08,1.53h8.91c-.39-.48-.75-.99-1.08-1.53h-6.75Zm2.16-4.38c-.18,.51-.39,1.02-.63,1.5h3.57c-.24-.48-.45-.99-.66-1.5h-2.28Z"/>
    </g>
    <g>
      <rect x="2" y="99.83" width="124.23" height="30.17" rx="15.09" ry="15.09" fill="#fff" stroke="#000" stroke-width="4"/>
      <g>
        <path d="M26.06,114.32c1.02,1.07,2.4,2.03,3.8,2.57-.42,.35-.94,1.04-1.23,1.5-1.81-.86-3.53-2.38-4.71-4.07h-3.24c-.43,.62-.89,1.21-1.42,1.74,1.21-.32,2.51-.77,3.26-1.25l1.47,.7c-1.25,.88-3.12,1.52-4.68,1.87-.18-.21-.42-.5-.65-.73-.83,.73-1.76,1.36-2.76,1.87-.27-.4-.97-1.13-1.39-1.47,1.53-.64,2.84-1.57,3.87-2.73h-3.29v-1.6h4.43c.18-.32,.34-.67,.5-1.02-1.57,.06-2.99,.11-4.19,.14l-.21-1.69c.8-.02,1.73-.03,2.73-.05,.54-.78,1.09-1.74,1.42-2.51l2.09,.53c-.45,.64-.94,1.33-1.42,1.93,1.42-.05,2.92-.08,4.43-.13-.38-.34-.77-.64-1.13-.91l1.5-.88c1.31,.96,3.02,2.38,3.85,3.39l-1.63,.97c-.24-.32-.56-.67-.94-1.05-1.47,.06-2.99,.13-4.43,.18-.14,.38-.3,.75-.48,1.1h7.94v1.6h-3.47Zm1.5,4.68c-2.08,2.11-5.61,3.05-9.65,3.55-.18-.48-.53-1.13-.88-1.55,3.71-.32,7.16-1.1,8.85-2.75l1.68,.75Zm-2.08-1.71c-1.57,1.25-4.04,2.09-6.37,2.59-.21-.42-.62-.99-1.01-1.34,2.11-.35,4.62-1.05,5.88-1.97l1.5,.72Z"/>
        <path d="M38.92,110.45s0,.62-.02,.86c-.14,6.81-.26,9.25-.75,9.98-.37,.54-.7,.7-1.23,.81-.46,.1-1.18,.1-1.93,.06-.03-.53-.21-1.36-.54-1.9,.64,.05,1.21,.06,1.52,.06,.24,0,.38-.06,.54-.29,.3-.43,.43-2.41,.53-7.75h-1.61c-.16,4.27-.72,7.84-2.78,10.21-.29-.46-.91-1.1-1.39-1.39,1.79-2.03,2.22-5.08,2.33-8.82h-1.85v-1.85h1.87c.02-.85,.02-1.73,.02-2.64h1.87c0,.89,0,1.77-.02,2.64h3.45Zm6.68-1.04v12.65h-1.9v-.99h-2.06v1.1h-1.84v-12.76h5.8Zm-1.9,9.83v-8h-2.06v8h2.06Z"/>
        <path d="M56.89,114.1c-.62,.45-1.23,.86-1.89,1.28h5.8v7.09h-1.98v-.42h-5.5v.48h-1.9v-5.22c-.8,.35-1.63,.7-2.44,1.01-.24-.42-.8-1.18-1.17-1.57,2.09-.65,4.11-1.57,5.94-2.65h-5.43v-1.68h5.13v-1.45h-3.75v-1.65h3.75v-1.73h1.89v1.73h3.47v.78c.61-.65,1.15-1.33,1.65-2.03l1.63,.83c-.91,1.26-1.98,2.44-3.15,3.51h3.71v1.68h-5.75Zm1.93,2.83h-5.5v1.02h5.5v-1.02Zm0,3.55v-1.09h-5.5v1.09h5.5Zm-3.48-8.05h.88c.61-.46,1.18-.94,1.73-1.45h-2.6v1.45Z"/>
        <path d="M76.55,117.29c.91,.58,2.06,1.07,3.24,1.34-.4,.37-.94,1.04-1.21,1.52-.65-.22-1.33-.53-1.93-.89-.14,1.55-.34,2.32-.69,2.68-.34,.3-.7,.42-1.17,.46-.42,.05-1.15,.03-1.92,.02-.03-.46-.21-1.09-.46-1.49,.64,.06,1.26,.08,1.53,.08,.24,0,.38-.03,.51-.14,.14-.14,.26-.48,.34-1.15h-2.73c-.67,1.39-2.01,2.3-4.9,2.88-.16-.45-.59-1.1-.91-1.45,1.97-.3,3.07-.77,3.69-1.42h-2.56v-.54c-.56,.29-1.18,.56-1.84,.8-.19-.43-.72-1.07-1.09-1.34,1.23-.37,2.2-.81,2.99-1.34h-2.49v-1.47h4.07c.14-.19,.27-.38,.38-.58h-2.73v-4.51h10.93v4.51h-6.23c-.1,.19-.19,.38-.3,.58h8.18v1.47h-2.7Zm-8.04-7.35h-3.35v-1.5h3.35v-.83h1.85v.83h3.42v-.83h1.87v.83h3.37v1.5h-3.37v.56h-1.87v-.56h-3.42v.56h-1.85v-.56Zm-.02,2.52h7.19v-.62h-7.19v.62Zm0,1.68h7.19v-.64h-7.19v.64Zm4.15,3.39c-.03,.29-.08,.56-.14,.83h2.84c-.42-.34-.78-.69-1.12-1.07h-4.28c-.37,.38-.77,.73-1.25,1.07h1.96c.06-.26,.11-.53,.16-.83h1.82Z"/>
        <path d="M91.15,118.87c1.44,.83,3.35,1.55,5.11,1.93-.4,.37-.93,1.07-1.18,1.52-1.87-.51-3.9-1.47-5.48-2.62v2.8h-1.87v-2.73c-1.58,1.15-3.64,2.12-5.51,2.64-.29-.46-.81-1.17-1.21-1.57,1.82-.38,3.8-1.12,5.29-1.97h-4.76v-1.52h6.2v-.62h-4.39v-4.31c-.29,.27-.59,.53-.91,.78-.3-.43-.93-1.01-1.34-1.28,1.77-1.28,3.07-2.96,3.79-4.35l1.96,.37c-.26,.46-.54,.91-.86,1.37h2.27c.29-.58,.54-1.21,.7-1.73l2.14,.26c-.27,.51-.57,1.02-.86,1.47h4.78v1.47h-5.02v.66h4.23v1.25h-4.23v.67h4.25v1.25h-4.25v.69h5.48v1.44h-5.86v.62h6.28v1.52h-4.73Zm-2.99-8.08h-3.02v.66h3.02v-.66Zm0,1.9h-3.02v.67h3.02v-.67Zm-3.02,2.6h3.02v-.69h-3.02v.69Z"/>
        <path d="M111.9,110.36v7.97h-2v-.8h-3.61v4.98h-2.01v-4.98h-3.59v.88h-1.92v-8.05h5.51v-2.76h2.01v2.76h5.61Zm-7.62,5.3v-3.43h-3.59v3.43h3.59Zm5.62,0v-3.43h-3.61v3.43h3.61Z"/>
      </g>
    </g>
  </g>
</svg>