<svg xmlns="http://www.w3.org/2000/svg" width="127.421" height="127.421" viewBox="0 0 127.421 127.421">
  <defs>
    <style>
      .cls-1 {
        fill: #fff;
      }

      .cls-2 {
        fill: #ffd500;
      }
    </style>
  </defs>
  <g id="レイヤー_2" data-name="レイヤー 2">
    <g id="ライン上">
      <g>
        <g>
          <circle cx="67.889" cy="67.888" r="59.533"/>
          <circle class="cls-1" cx="61.533" cy="61.533" r="59.533"/>
          <path d="M61.533,123.065a61.533,61.533,0,1,1,61.533-61.532A61.6,61.6,0,0,1,61.533,123.065ZM61.533,4a57.533,57.533,0,1,0,57.533,57.533A57.6,57.6,0,0,0,61.533,4Z"/>
        </g>
        <g>
          <polygon class="cls-2" points="98.97 66.571 15.544 66.571 23.167 48.868 106.593 48.868 98.97 66.571"/>
          <g>
            <path d="M39.254,56.41h11.2v3.24H24.692V56.41H35.5v-3.6H27.114V49.659H35.5V46.178H28.658V43.786a38.594,38.594,0,0,1-3.36,2.089,13.3,13.3,0,0,0-2.271-2.906A33.031,33.031,0,0,0,35.318,32.01h3.724A32,32,0,0,0,52,42.606a17.574,17.574,0,0,0-2.392,3.239,38.363,38.363,0,0,1-3.269-2.028v2.361H39.254v3.481H47.73v3.149H39.254ZM45.157,43a36.477,36.477,0,0,1-7.81-7.507A34.877,34.877,0,0,1,29.778,43Z"/>
            <path d="M81.634,33.282V60.376H77.789V58.863H59.867v1.513H56.2V33.282ZM77.789,55.533V36.581H59.867V55.533Zm-1.06-4.693v2.937H61.048V50.84h6.085V47.268H62.138V44.241h4.995V41.4H61.381V38.246H76.245V41.4H70.463v2.846h5.116v3.027H73.914a23.552,23.552,0,0,1,2.271,2.694l-1.575.878Zm-6.266,0H73.49a23.028,23.028,0,0,0-2.058-2.634l1.846-.938H70.463Z"/>
            <path d="M96.113,54.714l-1.488-2.363a15.231,15.231,0,0,0,1.846-.317A5.388,5.388,0,0,0,101,46.713a4.909,4.909,0,0,0-4.169-5.241,40.091,40.091,0,0,1-1.191,5.38c-1.191,4.01-2.9,6.472-5.062,6.472-2.2,0-4.03-2.422-4.03-5.777a8.82,8.82,0,0,1,9.112-8.5c4.923,0,8.02,3.415,8.02,7.743C103.677,50.981,101.116,53.939,96.113,54.714Zm-5.459-4.447c.834,0,1.608-1.251,2.422-3.931a29.705,29.705,0,0,0,1.052-4.8,6.249,6.249,0,0,0-5.042,5.757C89.086,49.294,89.88,50.267,90.654,50.267Z"/>
          </g>
          <g>
            <path d="M41.958,85.484H34.827v2.464c0,1.149-.241,1.723-1.149,2.038a11.226,11.226,0,0,1-3.594.352,9.846,9.846,0,0,0-.907-2.149c1.185.056,2.556.056,2.927.037.389,0,.481-.074.481-.333V85.484H25.472V83.465h7.113V82.243h1.056a12.581,12.581,0,0,0,1.426-1.019H28.788V79.316H37.1l.482-.111,1.389,1.074a17.926,17.926,0,0,1-4.02,3.186h7Zm-14.17-5.038H25.713v-4.5h2.519a15.728,15.728,0,0,0-1.278-1.909l1.871-.833a10.107,10.107,0,0,1,1.686,2.427l-.667.315h2.908a12.93,12.93,0,0,0-1.167-2.316l1.945-.7a10.872,10.872,0,0,1,1.445,2.668l-.89.352h2.8a15.54,15.54,0,0,0,1.593-2.816l2.39.722c-.5.7-1.056,1.445-1.556,2.094h2.463v4.5H39.606V77.89H27.788Z"/>
            <path d="M61.332,87.633V89.8H44.679V87.633h7.15V83.91h-5.02V81.78h5.02V78.519H47.994a15.194,15.194,0,0,1-1.723,2.686A17.591,17.591,0,0,0,44.29,79.89a15.946,15.946,0,0,0,3.278-6.632l2.279.5c-.26.889-.556,1.759-.871,2.612h2.853V73.036h2.316v3.335h6.242v2.148H54.145V81.78h5.538v2.13H54.145v3.723Z"/>
            <path d="M71.258,78.556a25.3,25.3,0,0,1-1.519,5.391,18.342,18.342,0,0,1,1.908,3l-1.759,1.5a17.347,17.347,0,0,0-1.26-2.278,12.465,12.465,0,0,1-3.8,4,9.728,9.728,0,0,0-1.482-1.723,10.277,10.277,0,0,0,3.945-4.2c-.982-1.315-2.075-2.63-3.093-3.76l1.574-1.241c.8.852,1.63,1.8,2.445,2.778a21.627,21.627,0,0,0,.889-3.741Zm9.559.686H78.834v8.336c0,1.241-.222,1.889-.925,2.241a7.385,7.385,0,0,1-3.335.482,9.051,9.051,0,0,0-.7-2.371c1.038.055,2.038.037,2.353.037.333,0,.444-.093.444-.389V79.242H72.018V77.908H63.867V75.87H67.09V73.036H69.2V75.87h3.427v1.26h4.038V73.018h2.167V77.13h1.983Zm-7.225,1.463a14.525,14.525,0,0,1,2.056,3.909l-1.907.982a15.466,15.466,0,0,0-1.908-4.039Z"/>
            <path d="M99.69,82.743a34.32,34.32,0,0,1-3.909,2.167,9.351,9.351,0,0,0,4.3,3,9.819,9.819,0,0,0-1.408,1.852c-3.52-1.444-5.557-4.334-6.724-8.28a17.237,17.237,0,0,1-1.538.834c3.779,2.538,3.779,6.279,1.89,7.484a3.61,3.61,0,0,1-2.149.611c-.444,0-.982-.019-1.482-.037a4.155,4.155,0,0,0-.63-1.964,25.15,25.15,0,0,1-3.76,1.39,12.526,12.526,0,0,0-1.26-1.594,22.538,22.538,0,0,0,7.651-3.186,4.681,4.681,0,0,0-.389-.5,21.688,21.688,0,0,1-5.761,2.353,9.019,9.019,0,0,0-1.186-1.482,21.832,21.832,0,0,0,5.78-1.89c-.186-.129-.389-.259-.593-.389a38.294,38.294,0,0,1-4.131,1.241A11.6,11.6,0,0,0,83.277,82.8a28.865,28.865,0,0,0,5.335-1.389h-3.5V78.538a7,7,0,0,1-.63.407,7.306,7.306,0,0,0-1.463-1.556,13.522,13.522,0,0,0,5.02-4.445l2.3.444q-.277.39-.556.778H93.04l.333-.092,1.5.981a15.292,15.292,0,0,1-1.241,1.723H98.1v4.631h-4.2a13.586,13.586,0,0,0,.944,2.112,23.214,23.214,0,0,0,3.076-2.075Zm-12.5-2.927h3.168V78.39H87.186Zm1.186-4a12.284,12.284,0,0,1-.982.963h3.686a9.495,9.495,0,0,0,.741-.963Zm3.019,10.707a21.122,21.122,0,0,1-3.316,1.871,14.473,14.473,0,0,0,1.7.074,1.724,1.724,0,0,0,1.131-.278A1.51,1.51,0,0,0,91.391,86.522Zm4.557-8.132H92.5v1.426h3.446Z"/>
          </g>
        </g>
      </g>
    </g>
  </g>
</svg>
