<?xml version="1.0" encoding="UTF-8"?>
<svg id="_レイヤー_2" data-name="レイヤー 2" xmlns="http://www.w3.org/2000/svg" viewBox="0 0 127.42 127.42">
  <g id="_ライン上" data-name="ライン上">
    <g>
      <g>
        <circle cx="67.89" cy="67.89" r="59.53"/>
        <circle cx="61.53" cy="61.53" r="59.53" fill="#fff"/>
        <circle cx="61.53" cy="61.53" r="59.53" fill="none" stroke="#000" stroke-width="4"/>
      </g>
      <g>
        <polygon points="108.75 77.55 10.25 77.55 17.87 59.85 116.38 59.85 108.75 77.55" fill="#ffd400"/>
        <g>
          <path d="M32.2,65.04h-2.62v5.72h-4.08v-5.72h-9.38v-2.98l8.22-13.34h5.24v12.98h2.62v3.33Zm-6.7-3.33v-4.5c0-1.28,.12-3.27,.18-4.55h-.12c-.54,1.16-1.13,2.38-1.76,3.57l-3.42,5.48h5.12Z"/>
          <path d="M34.52,73.81c2.16-.81,3.36-2.21,3.36-3.84h-.25c-1.34,0-2.58-.87-2.58-2.44,0-1.48,1.2-2.44,2.66-2.44,1.9,0,2.97,1.51,2.97,4.06,0,3.28-1.93,5.77-5.29,6.89l-.87-2.24Z"/>
          <path d="M43.41,68.22c5.98-5.36,9.53-9.5,9.53-12.89,0-2.23-1.22-3.57-3.3-3.57-1.61,0-2.95,1.04-4.05,2.26l-2.38-2.38c2.02-2.14,3.99-3.33,7-3.33,4.17,0,6.94,2.68,6.94,6.79s-3.3,8.28-7.32,12.21c1.1-.12,2.56-.24,3.57-.24h4.79v3.69h-14.77v-2.53Z"/>
          <path d="M62.11,67.21h4.73v-13.93h-3.99v-2.71c2.2-.42,3.72-.98,5.12-1.85h3.25v18.49h4.14v3.54h-13.25v-3.54Z"/>
          <path d="M93.9,65.04h-2.62v5.72h-4.08v-5.72h-9.38v-2.98l8.22-13.34h5.24v12.98h2.62v3.33Zm-6.7-3.33v-4.5c0-1.28,.12-3.27,.18-4.55h-.12c-.54,1.16-1.13,2.38-1.76,3.57l-3.42,5.48h5.12Z"/>
          <path d="M111.33,68.09h-2.3v-.74h-6.28v.72h-2.2v-5.26c-1.3,.74-2.69,1.33-4.09,1.82-.26-.61-.81-1.52-1.28-1.96,2.32-.67,4.56-1.78,6.48-3.2-.74-.82-1.85-1.78-2.83-2.56-.63,.5-1.31,.96-2.06,1.41-.33-.54-1.06-1.35-1.56-1.72,3.04-1.61,5.08-3.87,6.15-5.89l2.48,.46c-.28,.48-.59,.96-.93,1.44h4.21l.37-.11,1.52,.8c-.94,2.54-2.45,4.71-4.3,6.46h6.61v8.34Zm-9.93-13.56c-.3,.31-.59,.63-.91,.94,.98,.72,2.17,1.65,2.95,2.45,1.04-1.02,1.91-2.17,2.57-3.39h-4.61Zm7.63,10.84v-3.61h-6.28v3.61h6.28Z"/>
        </g>
        <g>
          <path d="M56.55,90.27c1.19,1.24,2.78,2.35,4.41,2.98-.48,.41-1.09,1.2-1.43,1.74-2.09-1-4.09-2.76-5.46-4.72h-3.76c-.5,.72-1.04,1.41-1.65,2.02,1.41-.37,2.91-.89,3.78-1.44l1.7,.82c-1.44,1.02-3.61,1.76-5.43,2.17-.2-.24-.48-.57-.76-.85-.96,.85-2.04,1.57-3.2,2.17-.31-.46-1.13-1.32-1.61-1.7,1.78-.74,3.3-1.82,4.48-3.17h-3.82v-1.85h5.13c.2-.37,.39-.78,.57-1.19-1.82,.07-3.46,.13-4.85,.17l-.24-1.96c.93-.02,2-.04,3.17-.06,.63-.91,1.26-2.02,1.65-2.91l2.43,.61c-.52,.74-1.09,1.54-1.65,2.24,1.65-.06,3.39-.09,5.13-.15-.44-.39-.89-.74-1.32-1.06l1.74-1.02c1.52,1.11,3.5,2.76,4.46,3.93l-1.89,1.13c-.28-.37-.65-.78-1.09-1.22-1.7,.07-3.46,.15-5.13,.2-.17,.44-.35,.87-.56,1.28h9.21v1.85h-4.02Zm1.74,5.43c-2.41,2.45-6.5,3.54-11.19,4.11-.2-.56-.61-1.32-1.02-1.8,4.3-.37,8.3-1.28,10.26-3.19l1.94,.87Zm-2.41-1.98c-1.82,1.44-4.69,2.43-7.39,3-.24-.48-.72-1.15-1.17-1.56,2.45-.41,5.35-1.22,6.82-2.28l1.74,.83Z"/>
          <path d="M71.46,85.79s0,.72-.02,1c-.17,7.89-.3,10.73-.87,11.58-.43,.63-.82,.82-1.43,.94-.54,.11-1.37,.11-2.24,.07-.04-.61-.24-1.57-.63-2.2,.74,.06,1.41,.07,1.76,.07,.28,0,.44-.07,.63-.33,.35-.5,.5-2.8,.61-8.98h-1.87c-.19,4.95-.83,9.1-3.22,11.84-.33-.54-1.06-1.28-1.61-1.61,2.07-2.35,2.57-5.89,2.7-10.23h-2.15v-2.15h2.17c.02-.98,.02-2,.02-3.06h2.17c0,1.04,0,2.06-.02,3.06h4Zm7.74-1.2v14.67h-2.2v-1.15h-2.39v1.28h-2.13v-14.8h6.72Zm-2.2,11.39v-9.28h-2.39v9.28h2.39Z"/>
        </g>
        <g>
          <path d="M49.55,38.78c-1.15,1.11-2.98,2.2-4.5,2.87-.39-.39-1.15-1.11-1.61-1.44,1.52-.52,3.17-1.33,4.13-2.2l1.98,.78Zm8.97-.33c-.22-.26-.5-.54-.83-.83-1.59,.04-3.22,.09-4.8,.13v4h-2.17v-3.95c-2.59,.06-5,.09-6.87,.13l-.06-1.74c1.04,0,2.24-.02,3.58-.04,.31-.13,.63-.3,.94-.46-.93-.7-2.2-1.5-3.26-2.06l1.54-1.19c.35,.19,.72,.39,1.11,.59,.52-.37,1.04-.8,1.52-1.22h-4.22v-6.82h13.8v6.82h-6.93l.2,.09c-.93,.74-1.98,1.46-2.89,2.02,.37,.24,.74,.48,1.06,.7,1.5-.87,2.98-1.85,4.06-2.7l1.89,1.06c-1.57,1.09-3.5,2.2-5.32,3.13l4.83-.06c-.46-.33-.93-.63-1.37-.89l1.59-1c1.48,.85,3.37,2.17,4.32,3.15l-1.72,1.13Zm-11.47-10.82h3.67v-.96h-3.67v.96Zm0,2.52h3.67v-.96h-3.67v.96Zm9.58-3.48h-3.8v.96h3.8v-.96Zm0,2.52h-3.8v.96h3.8v-.96Zm-1,8.69c1.39,.67,3.33,1.74,4.37,2.52l-1.72,1.22c-.91-.72-2.8-1.89-4.24-2.63l1.59-1.11Z"/>
          <path d="M70.03,29.24h-7.58v-1.74h7.58v1.74Zm-.8,11.52h-4.04v.72h-1.91v-6.32h5.95v5.59Zm-5.89-10.69h5.95v1.69h-5.95v-1.69Zm0,2.54h5.95v1.65h-5.95v-1.65Zm5.98-5.93h-5.87v-1.67h5.87v1.67Zm-4.13,10.23v2.13h2.11v-2.13h-2.11Zm14.73-4.09h-3.87v8.93h-2.22v-8.93h-3.87v-2.19h3.87v-6.11h2.22v6.11h3.87v2.19Z"/>
        </g>
      </g>
    </g>
  </g>
</svg>