<svg xmlns="http://www.w3.org/2000/svg" width="296.527" height="110.991" viewBox="0 0 296.527 110.991">
  <defs>
    <style>
      .cls-1 {
        fill: #ffda00;
      }

      .cls-2 {
        fill: #fff;
      }
    </style>
  </defs>
  <g id="レイヤー_2" data-name="レイヤー 2">
    <g id="ライン上">
      <g>
        <g>
          <path class="cls-1" d="M247.294,2H49.233A47.233,47.233,0,0,0,2,49.233H2A47.233,47.233,0,0,0,49.233,96.466H140.25l8.013,12.525,8.014-12.525h91.017a47.233,47.233,0,0,0,47.233-47.233h0A47.233,47.233,0,0,0,247.294,2Z"/>
          <path class="cls-2" d="M148.263,110.991a2,2,0,0,1-1.684-.922l-7.423-11.6H49.233A49.233,49.233,0,0,1,49.233,0H247.294a49.233,49.233,0,0,1,0,98.466H157.371l-7.423,11.6A2,2,0,0,1,148.263,110.991ZM49.233,4a45.233,45.233,0,0,0,0,90.466H140.25a2,2,0,0,1,1.685.922l6.328,9.892,6.329-9.892a2,2,0,0,1,1.685-.922h91.017a45.233,45.233,0,0,0,0-90.466Z"/>
        </g>
        <g>
          <path d="M77.408,36.551c-2.9.851-5.979,1.748-8.347,2.438l-.69-2.575c.92-.207,2.046-.507,3.288-.829V30.963H69.107V28.457h2.552v-4H68.9v-2.53h8.048v2.53H74.3v4h2.392v2.506H74.3V34.9c.9-.253,1.84-.506,2.737-.759Zm10.209,3.2c.414,0,.507-.368.553-2.668a7.018,7.018,0,0,0,2.276,1.012c-.23,3.151-.828,4-2.529,4H86.192c-2.116,0-2.576-.782-2.576-3.1V34.482h-1.4c-.414,3.748-1.472,6.415-6.37,7.864a8.074,8.074,0,0,0-1.518-2.253c4.163-1.035,4.9-2.921,5.2-5.611H77.845V21.6H89.066V34.482H86.238v4.507c0,.667.046.759.437.759ZM80.4,25.261h6V23.835h-6Zm0,3.5h6V27.331h-6Zm0,3.495h6V30.826h-6Z"/>
          <path d="M101.65,26.571a27.154,27.154,0,0,1-2.116,2.967V42.185H96.89v-9.75a22.734,22.734,0,0,1-2.024,1.771,16.448,16.448,0,0,0-1.448-2.622,21.307,21.307,0,0,0,5.795-6.024Zm-.575-4.782A23.92,23.92,0,0,1,95,27.606a18.211,18.211,0,0,0-1.356-2.3A17.16,17.16,0,0,0,98.5,20.754Zm12.739,9.543a15.168,15.168,0,0,1-3.955,6.507,17.044,17.044,0,0,0,5.588,2,11.3,11.3,0,0,0-1.748,2.438,16.6,16.6,0,0,1-6.024-2.644,21.314,21.314,0,0,1-5.772,2.644,10.4,10.4,0,0,0-1.5-2.3,17.411,17.411,0,0,0,5.2-2.185,15.537,15.537,0,0,1-2.737-4.093l2.047-.621h-3.242v-2.46h9.8l.506-.116Zm-7.956-7.359c0,2.115-.414,4.783-2.667,6.485a11.828,11.828,0,0,0-2.254-1.541A5.593,5.593,0,0,0,103.26,23.9V21.536h8.324v4.989c0,.414,0,.621.069.713a.448.448,0,0,0,.322.093h.483a.76.76,0,0,0,.344-.07c.092-.046.185-.184.23-.506s.069-1.057.092-1.908a7.551,7.551,0,0,0,2.047,1.081,9.982,9.982,0,0,1-.345,2.483,1.684,1.684,0,0,1-.874.989,3.356,3.356,0,0,1-1.379.276h-1.38a2.506,2.506,0,0,1-1.725-.6c-.437-.437-.644-.943-.644-2.46V23.927h-2.966Zm-.506,9.106a10.975,10.975,0,0,0,2.323,3.128,12.27,12.27,0,0,0,2.414-3.128Z"/>
          <path d="M131.641,29.722c1.518,4.484,4.3,8.094,8.6,9.841a11.05,11.05,0,0,0-2.023,2.576c-4.163-1.954-6.83-5.312-8.624-9.75a15.827,15.827,0,0,1-8.6,9.773,8.113,8.113,0,0,0-2.046-2.323A13.783,13.783,0,0,0,127.3,29.722h-7.91V26.894h8.37c.23-2.162.207-4.255.23-6.14h2.989c-.023,1.885-.046,4-.276,6.14h9.037v2.828Z"/>
          <path d="M164.851,36.207H156v3.058c0,1.425-.3,2.138-1.426,2.529a13.934,13.934,0,0,1-4.46.437,12.28,12.28,0,0,0-1.127-2.668c1.471.07,3.173.07,3.633.047.483,0,.6-.092.6-.414V36.207h-8.831v-2.53h8.831V32.182h1.31a15.471,15.471,0,0,0,1.771-1.265H148.5V28.549h10.325l.6-.138,1.724,1.334a21.931,21.931,0,0,1-4.944,3.932h8.646ZM147.26,29.952h-2.576V24.364h3.128A19.262,19.262,0,0,0,146.225,22l2.323-1.035a12.534,12.534,0,0,1,2.092,3.012l-.828.391h3.611a16.008,16.008,0,0,0-1.449-2.874l2.414-.874a13.4,13.4,0,0,1,1.794,3.311l-1.1.437h3.473a19.212,19.212,0,0,0,1.977-3.5l2.967.9c-.621.9-1.288,1.793-1.932,2.6h3.058v5.588H161.93V26.778H147.26Z"/>
          <path d="M190.06,38.874v2.69H169.387v-2.69h8.876V34.252h-6.231V31.607h6.231V27.56H173.5a18.957,18.957,0,0,1-2.139,3.335,21.75,21.75,0,0,0-2.461-1.633,19.767,19.767,0,0,0,4.07-8.232l2.829.62c-.322,1.1-.69,2.185-1.081,3.243h3.541V20.754h2.874v4.139h7.75V27.56h-7.75v4.047h6.876v2.645h-6.876v4.622Z"/>
          <path d="M203.862,22.11c-.139.6-.3,1.311-.414,1.886-.115.69-.3,1.518-.46,2.345.759-.046,1.448-.091,1.908-.091,2.415,0,4.116,1.081,4.116,4.346,0,2.69-.321,6.323-1.287,8.3a3.658,3.658,0,0,1-3.749,2.093,12.712,12.712,0,0,1-2.713-.323l-.5-3.012a13.1,13.1,0,0,0,2.782.483,1.655,1.655,0,0,0,1.7-.989,16.84,16.84,0,0,0,.943-6.232c0-1.816-.782-2.069-2.23-2.069-.368,0-.92.046-1.564.092-.874,3.449-2.529,8.807-4.622,12.164l-2.989-1.2c2.231-2.99,3.771-7.543,4.6-10.647-.8.092-1.518.184-1.954.253-.645.069-1.818.23-2.531.345l-.253-3.082a20.921,20.921,0,0,0,2.415,0c.713-.023,1.793-.091,2.944-.184a25.191,25.191,0,0,0,.482-4.828Zm7.864,2.139a41.109,41.109,0,0,1,3.978,8.462l-2.874,1.357a26.314,26.314,0,0,0-3.863-8.669Z"/>
          <path d="M223.942,31.653a11.169,11.169,0,0,1,6.692-2.161c4,0,6.323,2.46,6.323,5.22,0,4.162-3.288,7.358-12.762,6.531l-.874-2.99c6.829.966,10.439-.713,10.439-3.61,0-1.472-1.4-2.553-3.4-2.553a7.982,7.982,0,0,0-6.277,2.668,4.933,4.933,0,0,0-.851,1.333l-2.644-.667a83.326,83.326,0,0,0,1.127-9.5l3.081.413C224.494,27.606,224.1,30.343,223.942,31.653Zm.713-9.887a72.058,72.058,0,0,0,9.1,1.77l-.689,2.805c-2.3-.3-7.382-1.356-9.152-1.816Z"/>
          <path d="M40.189,53.105a40.162,40.162,0,0,1-1.839,4.437v16.12h-2.6V61.981c-.459.62-.942,1.241-1.4,1.793a16.387,16.387,0,0,0-1.518-2.851,24.226,24.226,0,0,0,4.76-8.6ZM49.5,58.922a24.859,24.859,0,0,0,5.611,9.221,11.192,11.192,0,0,0-2.046,2.116,21.157,21.157,0,0,1-1.84-2.437v2.023H48.146v3.7H45.478v-3.7H42.466V67.729a17.029,17.029,0,0,1-2.047,2.6,11.11,11.11,0,0,0-1.954-2.07,23.521,23.521,0,0,0,5.726-9.336H39.66v-2.6h5.818V52.346h2.668v3.978h6.346v2.6Zm-4.024,8.486V61.567a29.9,29.9,0,0,1-2.8,5.841Zm5.5,0a33.592,33.592,0,0,1-2.828-6v6Z"/>
          <path d="M58.039,71.662a10.7,10.7,0,0,0,1.15-5.059l1.517.3c-.115,2.092-.344,4.23-1.287,5.518Zm17.683-4.37a8.657,8.657,0,0,0,4.3,4.232A10.624,10.624,0,0,0,78.3,73.685,9.92,9.92,0,0,1,74,68.833a10.037,10.037,0,0,1-5.105,4.921,9.143,9.143,0,0,0-1.333-1.61,1.88,1.88,0,0,1-.3.645,1.828,1.828,0,0,1-1.38.8,8.945,8.945,0,0,1-2.023.069,5.259,5.259,0,0,0-.552-2.116,12.757,12.757,0,0,0,1.4.092.685.685,0,0,0,.621-.3,5.337,5.337,0,0,0,.391-2l-.736.276a13.472,13.472,0,0,0-1.035-2.966l1.082-.368a13.381,13.381,0,0,1,.781,1.862c.046-.689.092-1.54.138-2.529H59.373V53.082h8.462V55.29H65.374v1.264h2v1.219a14.672,14.672,0,0,0,5.013-5.52h2.345a14.845,14.845,0,0,0,5.4,5.174,15.883,15.883,0,0,0-1.356,2.346,10.4,10.4,0,0,1-1.5-1.058V59.98h-2.3v1.242H79.1v6.07ZM62.086,66.97a22.518,22.518,0,0,1,.23,4.208l-1.242.161a27.217,27.217,0,0,0-.161-4.254Zm-.46-11.68v1.264H63.19V55.29Zm0,3.334V60H63.19V58.624Zm0,4.875H63.19V62.073H61.626Zm2,3.242a18.914,18.914,0,0,1,.758,3.7l-1.2.253a17.313,17.313,0,0,0-.713-3.726ZM68.272,63.5s0,.6-.023.9a56.692,56.692,0,0,1-.552,7.221,8.126,8.126,0,0,0,4.231-4.324H68.662v-6.07h3.91V59.98H70.226V58.739a13.672,13.672,0,0,1-1.77,1.31,12.831,12.831,0,0,0-1.081-1.977v.552h-2V60h2v2.07h-2V63.5Zm4.162,1.816a12.415,12.415,0,0,0,.138-2.047V63.2H70.893v2.115Zm3.909-7.428a16.3,16.3,0,0,1-2.69-3.264,17.216,17.216,0,0,1-2.53,3.264ZM74.986,63.2v.092a20.161,20.161,0,0,1-.092,2.023H76.78V63.2Z"/>
          <path d="M92.1,58.186H83.362V56.025H92.1Zm-.735,14.3H86.674v.9h-2.3V65.544h6.991Zm-.023-11.176h-6.9V59.221h6.9Zm-6.9,1.058h6.9v2.046h-6.9Zm6.829-7.359h-6.76V52.944h6.76Zm-4.6,12.694v2.644h2.368V67.707Zm13.589-.323a7.859,7.859,0,0,0,4.714,4.025,21.443,21.443,0,0,0-1.563,2.322,8.507,8.507,0,0,1-4.967-5.059,9.164,9.164,0,0,1-5.473,5.059,11.464,11.464,0,0,0-1.5-2.231c4.392-1.541,5.565-4.552,5.565-6.093V61.935h2.782v3.472a4.965,4.965,0,0,0,.437,1.931,24.816,24.816,0,0,0,1.817-3.978l2.69.828a43.846,43.846,0,0,1-2.414,3.955Zm-8.669.185a7.356,7.356,0,0,0,2-4.048L95.987,64a8.8,8.8,0,0,1-2.139,4.691Zm11.36-4.668a34.482,34.482,0,0,0-4.6-3.335,8.659,8.659,0,0,1-4.921,3.518,6.7,6.7,0,0,0-1.518-2.161c4.783-1.5,5.151-4.116,5.335-8.67H99.9a24.262,24.262,0,0,1-.574,5.014,47.785,47.785,0,0,1,5.449,3.564ZM96.1,54.047A8.192,8.192,0,0,1,94.285,58.3l-2.139-.92a7.436,7.436,0,0,0,1.725-3.794Zm8.463.23c-.76,1.334-1.587,2.737-2.231,3.7l-2.024-.782a20.191,20.191,0,0,0,1.656-3.748Z"/>
          <path d="M118.136,53.771c-.138.6-.276,1.312-.391,1.886-.138.69-.322,1.517-.483,2.345.759-.045,1.449-.091,1.909-.091,2.414,0,4.116,1.081,4.116,4.345,0,2.691-.322,6.325-1.288,8.3-.759,1.586-2,2.092-3.748,2.092a12.962,12.962,0,0,1-2.714-.321l-.506-3.013a13.3,13.3,0,0,0,2.806.483,1.672,1.672,0,0,0,1.7-.989,17.382,17.382,0,0,0,.92-6.231c0-1.817-.781-2.07-2.207-2.07-.368,0-.92.046-1.564.092-.9,3.449-2.552,8.807-4.645,12.164l-2.966-1.2c2.207-2.989,3.771-7.543,4.576-10.647-.805.092-1.518.184-1.955.253-.644.069-1.816.23-2.529.345l-.253-3.082a21.131,21.131,0,0,0,2.414,0c.713-.022,1.794-.092,2.944-.184a25.28,25.28,0,0,0,.483-4.829Zm8.163,2.714a45.234,45.234,0,0,1,3.7,7.933l-2.9,1.357a25.8,25.8,0,0,0-3.84-8.577l2.115-.9a25.7,25.7,0,0,0-1.563-2.714l1.816-.758c.575.85,1.38,2.3,1.84,3.15Zm2.092-.759a22.9,22.9,0,0,0-1.862-3.174l1.816-.759a27.159,27.159,0,0,1,1.863,3.128Z"/>
          <path d="M142.631,57.887c.069-.39.138-.827.184-1.264h-8.739V54.117h8.992c.046-.691.068-1.358.091-1.955l3.22.091c-.092.622-.161,1.243-.276,1.864h8.347v2.506h-8.761c-.092.437-.161.874-.253,1.264h6.646V68.81H139.71V57.887ZM154.68,72.7H137.848v1.034h-2.713V58.6h2.713V70.144H154.68Zm-5.312-12.9h-7.082v1.173h7.082Zm0,2.966h-7.082v1.151h7.082Zm0,2.967h-7.082V66.9h7.082Z"/>
          <path d="M173.265,61.935c-.229.528-.482,1.1-.758,1.655h7.405v2.3h-2.485a10.163,10.163,0,0,1-1.631,3.7,26.533,26.533,0,0,1,3.863,2.07l-1.725,2.046a27.681,27.681,0,0,0-4.048-2.3c-1.792,1.195-4.3,1.885-7.772,2.345a7.211,7.211,0,0,0-1.012-2.208,18.439,18.439,0,0,0,6.094-1.31c-.574-.23-1.149-.46-1.7-.644l-.231.414-2.344-.759c.506-.919,1.1-2.116,1.677-3.357h-2.758V64.648c-.576.161-1.15.345-1.725.506v5.472c0,1.358-.23,2.093-.966,2.507a6.794,6.794,0,0,1-3.427.552,9.9,9.9,0,0,0-.758-2.667c.9.046,1.839.046,2.138.023.277,0,.391-.092.391-.437V65.89l-2.552.69-.575-2.645c.874-.184,1.955-.436,3.127-.713V59.083h-2.667V56.577h2.667V52.253h2.622v4.324h1.771v2.506h-1.771v3.5l1.747-.46.185,1.471h3.587c.252-.575.483-1.127.689-1.655h-4.668V59.612h3.45a15.511,15.511,0,0,0-.667-2.8l.46-.093h-2.553v-2.3h5.128V52.231h2.783v2.185h5.128v2.3H177.5c-.368,1.059-.759,2.071-1.1,2.9h3.541v2.323ZM171.4,65.89c-.275.574-.574,1.15-.851,1.7.9.277,1.863.621,2.852.99a7.057,7.057,0,0,0,1.334-2.691Zm-.482-9.176a12.061,12.061,0,0,1,.689,2.875l-.092.023h2.414a22.167,22.167,0,0,0,.874-2.9Z"/>
          <path d="M187.413,61.038v12.67h-2.668v-20.6H193.6v7.933Zm0-6v1.126h3.61V55.037Zm3.61,4.069v-1.2h-3.61v1.2Zm7.542,4.761v9.2H196.1V71.708c-2.736.207-5.427.39-7.472.575l-.116-2.047,1.587-.092V63.867h-1.357V61.981h11.2v1.886Zm-2.461,0H192.5v.919H196.1Zm0,2.436H192.5v.989H196.1Zm-3.609,3.7c1.149-.069,2.368-.138,3.609-.23v-.988H192.5Zm11.635.529c0,1.356-.23,2.138-1.035,2.575a7.7,7.7,0,0,1-3.633.529,9.671,9.671,0,0,0-.8-2.714c.966.046,2,.046,2.346.024.322,0,.436-.116.436-.46V61.083h-6.323V53.105h9.014Zm-6.415-15.5v1.126h3.724V55.037Zm3.724,4.115V57.911h-3.724v1.241Z"/>
          <path d="M214.461,53.886a17.384,17.384,0,0,0-.53,1.84c-.551,2.529-1.356,7.289-.758,10.118.3-.69.69-1.794,1.057-2.622l1.449.9a57.345,57.345,0,0,0-1.541,5.564,5.393,5.393,0,0,0-.161,1.1c.024.23.046.621.07.943l-2.553.253a25.391,25.391,0,0,1-1.311-7.382,59.533,59.533,0,0,1,.759-9.083,11.921,11.921,0,0,0,.138-1.977Zm14.6,6.623c-.92.115-2.093.207-3.38.276v.943c0,5.381-.414,8.669-4.944,11.566l-2.644-2.069a8.867,8.867,0,0,0,2.667-1.817c1.748-1.817,2.116-3.84,2.116-7.68V60.9c-.851.023-1.725.046-2.553.046-.988,0-2.392-.07-3.518-.115v-2.9a23.909,23.909,0,0,0,3.45.231c.827,0,1.7-.024,2.575-.046-.024-1.265-.07-2.438-.115-3.059a10.092,10.092,0,0,0-.253-1.563H225.8a11.556,11.556,0,0,0-.115,1.541c-.023.505-.023,1.677-.023,2.92a29.586,29.586,0,0,0,3.427-.415Z"/>
          <path d="M249.418,55.933q-.828.517-1.587,1.034c-1.219.852-3.611,2.875-5.036,4.025a7.652,7.652,0,0,1,2.138-.253c3.864,0,6.807,2.415,6.807,5.725,0,3.588-2.736,6.439-8.232,6.439-3.173,0-5.565-1.448-5.565-3.725a3.826,3.826,0,0,1,4.093-3.541,4.585,4.585,0,0,1,4.852,3.886,3.321,3.321,0,0,0,1.863-3.1c0-2.045-2.07-3.425-4.714-3.425-3.5,0-5.772,1.862-8.209,4.622l-2.07-2.139c1.61-1.31,4.346-3.634,5.7-4.737,1.264-1.058,3.633-2.966,4.759-3.955-1.172.023-4.3.161-5.5.253a15.04,15.04,0,0,0-1.862.183l-.092-2.966a20.514,20.514,0,0,0,2.07.116c1.2,0,6.071-.116,7.358-.231a11.03,11.03,0,0,0,1.748-.229Zm-5.152,14.326c-.137-1.471-.988-2.437-2.23-2.437-.851,0-1.4.506-1.4,1.08,0,.851.965,1.426,2.3,1.426A11.989,11.989,0,0,0,244.266,70.259Z"/>
          <path d="M259.65,70.533a2.707,2.707,0,0,1,5.408,0,2.709,2.709,0,0,1-5.408,0Zm.442-13.26-.1-3.874h4.758l-.13,3.874-.91,8.892h-2.678Z"/>
        </g>
      </g>
    </g>
  </g>
</svg>
