<svg xmlns="http://www.w3.org/2000/svg" width="163" height="107.648"><g data-name="レイヤー 2"><path d="M36.217 43.192a9.715 9.715 0 0 0 5.445 6.231 6.942 6.942 0 0 0-1.281 1.63 10.856 10.856 0 0 1-5.459-6.172 10.025 10.025 0 0 1-5.445 6.187 5.121 5.121 0 0 0-1.3-1.471 8.726 8.726 0 0 0 5.284-6.405h-5.002V41.4h5.3c.145-1.368.13-2.693.145-3.887H35.8c-.014 1.194-.029 2.533-.174 3.887h5.721v1.79ZM56.366 47.3h-5.6v1.936c0 .9-.189 1.354-.9 1.6a8.842 8.842 0 0 1-2.824.276 7.7 7.7 0 0 0-.713-1.688c.932.043 2.009.043 2.3.029s.371-.059.371-.263V47.3h-5.59v-1.589H49v-.961h.829a9.891 9.891 0 0 0 1.121-.8h-4.934v-1.5h6.536l.378-.087 1.092.844a14.087 14.087 0 0 1-3.158 2.5h5.5ZM45.23 43.338H43.6V39.8h1.98a12.305 12.305 0 0 0-1-1.5l1.471-.655a7.975 7.975 0 0 1 1.324 1.907l-.525.248h2.287a10.318 10.318 0 0 0-.917-1.82l1.528-.553a8.524 8.524 0 0 1 1.135 2.1l-.7.277h2.2a12.314 12.314 0 0 0 1.252-2.213l1.878.568a56.352 56.352 0 0 1-1.224 1.645h1.931v3.537h-1.7v-2.012h-9.29Zm26.219 5.648v1.7H58.362v-1.7h5.619V46.06h-3.944v-1.674h3.944v-2.562h-3.013a12.01 12.01 0 0 1-1.354 2.111 13.76 13.76 0 0 0-1.558-1.035 12.517 12.517 0 0 0 2.577-5.211l1.791.393c-.2.7-.437 1.383-.684 2.052h2.241v-2.62H65.8v2.62h4.907v1.689H65.8v2.562h4.353v1.675H65.8v2.926Zm4.397-4.469c-.6-.422-1.848-1.106-2.707-1.572l.932-1.281c.8.393 2.1 1.019 2.736 1.412Zm-2.5 5.241a43.026 43.026 0 0 0 2.767-4.586l1.266 1.165a59.035 59.035 0 0 1-2.576 4.6Zm3.13-9.215a29.749 29.749 0 0 0-2.649-1.6l.973-1.253c.815.407 2.082 1.048 2.708 1.456Zm6.45 2.839v1.834h2.969v5.808h-1.649V50.5h-4.367v.6h-1.573v-5.884h2.97v-1.834H77.4v-1.66h3.872v-1.7c-.946.146-1.921.247-2.824.335a6.186 6.186 0 0 0-.509-1.485 28.841 28.841 0 0 0 6.817-1.372l1.324 1.368a20.012 20.012 0 0 1-3.158.859v1.994h3.7v1.66Zm1.324 3.406h-4.371v2.14h4.367Zm11.862 3.726-1.092-1.732a11 11 0 0 0 1.354-.233 3.95 3.95 0 0 0 3.319-3.9 3.6 3.6 0 0 0-3.057-3.843 29.346 29.346 0 0 1-.874 3.945c-.873 2.94-2.125 4.745-3.712 4.745-1.615 0-2.955-1.775-2.955-4.236a6.469 6.469 0 0 1 6.682-6.23 5.544 5.544 0 0 1 5.881 5.677c0 3.071-1.878 5.24-5.546 5.807Zm-4-3.26c.611 0 1.179-.917 1.775-2.883a21.807 21.807 0 0 0 .772-3.522 4.583 4.583 0 0 0-3.7 4.221c0 1.47.583 2.184 1.15 2.184Zm12.91-6.74a10.588 10.588 0 0 1-.713 4.163l-1.135-.509a9.709 9.709 0 0 0 .684-3.8Zm2.592 2.606a10.248 10.248 0 0 0-.714-2.14v10.1h-1.674V37.5h1.674v2.78l.8-.349a10.766 10.766 0 0 1 1.048 2.634Zm1.7-.9a15.145 15.145 0 0 0-1.252-3.479l1.47-.539a13.528 13.528 0 0 1 1.354 3.407Zm5.531.772h1.7v7.933h-1.7v-.757h-4.8v.786h-1.66v-7.936h1.66v5.575h4.8Zm-.961 4.993a10.56 10.56 0 0 0-1.149-1.238 10.671 10.671 0 0 1-1.412 1.849 9.57 9.57 0 0 0-1.267-.975 8.848 8.848 0 0 0 1.514-1.907 55.55 55.55 0 0 0-1.441-1.107l.859-1.164c.392.276.83.6 1.267.917a13.074 13.074 0 0 0 .582-1.689l1.528.335a16.139 16.139 0 0 1-.888 2.344 9.834 9.834 0 0 1 1.354 1.3Zm-2.038-6.289a17.9 17.9 0 0 0-.917-3.581l1.515-.422a17.058 17.058 0 0 1 1 3.494Zm4.936-3.406a17.743 17.743 0 0 1-1.966 4.571 10.51 10.51 0 0 0-1.688-.786 13.153 13.153 0 0 0 1.877-4.178Zm5.404.594c.83 0 2.373-.073 3.058-.131a3.133 3.133 0 0 0 .989-.2l1.165.9a3.5 3.5 0 0 0-.495.612 30.9 30.9 0 0 0-1.456 3.129 13.086 13.086 0 0 1 3.159.932l.044-.5a9.52 9.52 0 0 0 0-1.587l1.907.219a23.716 23.716 0 0 1-.277 2.693c.611.349 1.136.684 1.558.975l-.844 2.023a15.43 15.43 0 0 0-1.252-1.019 7.279 7.279 0 0 1-3.7 3.945l-1.542-1.263a6.274 6.274 0 0 0 3.7-3.654 10.1 10.1 0 0 0-3.45-1.179 28.887 28.887 0 0 1-1.645 3.494 2.539 2.539 0 0 1-2.271 1.281 2.178 2.178 0 0 1-2.241-2.358c0-2.257 2.051-3.975 4.978-4.106.407-.96.829-1.95 1.164-2.634-.582.029-1.834.072-2.5.116-.291.015-.8.058-1.179.117l-.073-1.878c.389.043.883.073 1.203.073Zm-1.28 8.763c.291 0 .494-.146.757-.51a16.319 16.319 0 0 0 1.179-2.373c-1.63.248-2.547 1.238-2.547 2.155.005.481.276.728.611.728Zm13.655-4.833c.423-.175.874-.364 1.311-.553a14.88 14.88 0 0 0-.641-1.238 12.394 12.394 0 0 0-.858-1.281l1.891-.728c.132.263.423.859.583 1.136.218.422.452.888.684 1.383a28.942 28.942 0 0 1 2.62-1.034 23.591 23.591 0 0 0-2.009-1.863l1.34-.932a22.526 22.526 0 0 1 2.11 1.864l-1.149.844a7.434 7.434 0 0 1 2.1-.349c2.257 0 3.61 1.368 3.61 3.057 0 2.038-1.4 3.333-3.625 3.333a7.181 7.181 0 0 1-2.241-.407l.043-1.835a5.491 5.491 0 0 0 2.023.5 1.672 1.672 0 0 0 1.893-1.645c0-.742-.655-1.339-1.747-1.339a11.939 11.939 0 0 0-4.279 1.31c.145.306.276.612.407.9.684 1.586 1.805 4.7 2.286 6.332l-2 .524a45.172 45.172 0 0 0-1.95-6.056c-.131-.3-.262-.611-.394-.9-1.048.524-1.965 1.019-2.591 1.3l-.858-1.848a12.135 12.135 0 0 0 1.441-.475ZM28.263 59.009l2.053-.335c.044.291.087.786.16 1.135.03.2.116.685.233 1.34 1.237-.2 2.343-.379 2.868-.481a17.36 17.36 0 0 0 1.368-.3l.35 1.907c-.321.029-.9.116-1.34.174-.6.1-1.7.277-2.911.466.145.728.291 1.528.451 2.329 1.31-.218 2.5-.422 3.159-.553.567-.117 1.106-.233 1.484-.349l.394 1.921c-.394.029-.99.131-1.543.218-.7.117-1.878.306-3.159.51.233 1.194.436 2.169.524 2.62s.247.961.378 1.427l-2.1.378c-.073-.538-.117-1.048-.2-1.47-.072-.422-.261-1.427-.495-2.649-1.484.247-2.852.48-3.478.6s-1.121.219-1.456.306l-.408-1.95c.393-.015 1.048-.1 1.514-.161.67-.087 2.024-.3 3.493-.538-.145-.786-.3-1.6-.436-2.344-1.282.2-2.4.393-2.853.466-.466.1-.845.175-1.34.306l-.392-2.009c.466-.015.9-.044 1.353-.1.51-.058 1.631-.218 2.882-.422-.116-.612-.218-1.092-.262-1.325-.087-.433-.189-.768-.291-1.117Zm15.171 3.362c.1.35.233.845.393 1.412 1.848-.349 3.887-.742 4.455-.873a2.783 2.783 0 0 0 .742-.233l1.164.83a22.9 22.9 0 0 1-3.1 4.556l-1.6-.8a12.927 12.927 0 0 0 2.154-2.621c-.349.059-1.8.364-3.378.684.554 2.009 1.18 4.251 1.4 5.008.088.248.277.9.393 1.194l-1.979.495a8.309 8.309 0 0 0-.263-1.281c-.218-.786-.814-3.057-1.339-5.037-1.222.262-2.285.48-2.722.582L39.3 64.54a14.58 14.58 0 0 0 1.339-.174c.2-.029.728-.117 1.4-.248a27.049 27.049 0 0 0-.379-1.354 5.124 5.124 0 0 0-.407-1.033l1.95-.466c.056.335.143.728.231 1.106Zm12.083-1.921v4.92c0 .364.015.932.044 1.267h-2.11c.014-.277.072-.845.072-1.281V60.45a10.5 10.5 0 0 0-.058-1.121h2.1c-.033.335-.048.655-.048 1.121Zm6.741.218v2.883c0 3.129-.612 4.483-1.689 5.677a8.578 8.578 0 0 1-3.537 2.1l-1.515-1.6a6.583 6.583 0 0 0 3.494-1.835c1-1.091 1.194-2.183 1.194-4.454v-2.771a10.447 10.447 0 0 0-.087-1.455h2.2c-.031.407-.06.873-.06 1.455Zm15.825.743a14.857 14.857 0 0 1-3.494 3.989l-1.514-1.208a8.65 8.65 0 0 0 2.679-2.708H68.17c-.612 0-1.092.044-1.777.1v-2.022a11.6 11.6 0 0 0 1.777.145h7.845a7.551 7.551 0 0 0 1.486-.13l1.149 1.077a7.246 7.246 0 0 0-.567.757Zm-9.405 9.913-1.7-1.383a5.761 5.761 0 0 0 1.53-.8c1.848-1.281 2.2-2.824 2.2-5.211a7.938 7.938 0 0 0-.1-1.31h2.111c-.008 3.609-.081 6.58-4.041 8.704Zm17.063-11.18c-.044.248-.1.641-.16 1.121a20.426 20.426 0 0 0 2.664-.2l-.059 1.733a26.333 26.333 0 0 1-2.839.145 90.695 90.695 0 0 0-.247 1.98h.1a25.121 25.121 0 0 0 2.927-.175l-.044 1.732c-.816.073-1.66.131-2.577.131h-.583c-.029.437-.057.8-.057 1.063 0 1.208.742 1.849 2.169 1.849 2.037 0 3.143-.932 3.143-2.125a3.972 3.972 0 0 0-1.5-2.825l2.053-.436a5.424 5.424 0 0 1 1.412 3.493c0 2.2-1.98 3.771-5.168 3.771-2.285 0-3.9-.99-3.9-3.421 0-.35.044-.874.1-1.47a16.25 16.25 0 0 1-2.8-.481l.1-1.761a13.392 13.392 0 0 0 2.867.582c.088-.655.175-1.339.248-1.994a17.145 17.145 0 0 1-2.9-.524l.1-1.674a13.819 13.819 0 0 0 3 .553c.044-.451.088-.844.118-1.179a7.874 7.874 0 0 0 .014-1.3l2.052.117c-.117.524-.174.917-.233 1.295Zm8.896.495h5.532v1.368h-5.532Zm5.124 10.554h-3.028v.568h-1.455V66.8h4.483Zm-.073-7.177h-4.367v-1.3h4.367Zm-4.367.728h4.367v1.31h-4.367Zm4.382-4.8h-4.294V58.63H99.7Zm-2.97 8.225v1.66h1.558v-1.66ZM105.162 64v1.921h2.547v5.794h-1.732v-.641h-3.3v.7h-1.645v-5.851h2.368V64h-3.13v-1.614h3.13V60.61c-.815.1-1.644.175-2.416.233a5.676 5.676 0 0 0-.466-1.456 31.791 31.791 0 0 0 6.172-1.062l1.223 1.441a22.341 22.341 0 0 1-2.751.6v2.023h3.13V64Zm.815 3.479h-3.3v2.038h3.3Zm14.515-7.131c-.015.568-.015 1.092-.029 1.572.393-.029.756-.058 1.091-.073.409-.029.976-.058 1.4-.1v1.791c-.247-.015-1.019 0-1.4.015-.32.014-.7.029-1.121.058a25.53 25.53 0 0 1-.217 2.911c-.161.772-.525.961-1.267.961-.524 0-1.689-.146-2.2-.218l.044-1.616a7.686 7.686 0 0 0 1.338.189c.292 0 .423-.058.452-.335a16.19 16.19 0 0 0 .117-1.761c-1.3.1-2.723.233-3.96.364-.015 1.339-.029 2.678 0 3.3.029 1.427.16 1.747 2.344 1.747a29.362 29.362 0 0 0 4.352-.364l-.073 1.98a41.308 41.308 0 0 1-4.148.233c-3.771 0-4.222-.786-4.294-3.305-.015-.626-.015-2.038-.015-3.392-.394.044-.728.073-.976.1-.465.059-1.368.2-1.747.262l-.2-1.863c.422 0 1.092-.029 1.834-.1.262-.029.641-.058 1.107-.1v-1.47a11.211 11.211 0 0 0-.117-1.616h2.052a9.746 9.746 0 0 0-.087 1.514c0 .335-.014.83-.014 1.4 1.237-.117 2.649-.248 3.973-.364v-1.647a12.166 12.166 0 0 0-.1-1.339h1.951c-.032.232-.075.873-.09 1.266Zm7.308-.859c.772 0 3.887-.058 4.716-.131a6.38 6.38 0 0 0 1.107-.16l.946 1.3c-.335.218-.685.422-1.019.669-.786.553-2.315 1.834-3.232 2.562a5.712 5.712 0 0 1 1.383-.16c2.475 0 4.352 1.543 4.352 3.668 0 2.3-1.746 4.12-5.269 4.12-2.024 0-3.552-.932-3.552-2.387a2.44 2.44 0 0 1 2.606-2.271 2.913 2.913 0 0 1 3.1 2.489 2.111 2.111 0 0 0 1.208-1.98c0-1.31-1.31-2.2-3.028-2.2-2.227 0-3.683 1.179-5.24 2.955l-1.325-1.368c1.034-.83 2.795-2.315 3.654-3.028.815-.67 2.329-1.892 3.042-2.518-.743.014-2.751.1-3.523.145a23.35 23.35 0 0 0-1.193.117l-.059-1.893a9.975 9.975 0 0 0 1.326.071Zm2.621 10.205a7.6 7.6 0 0 0 .843-.044c-.087-.946-.626-1.558-1.412-1.558-.553 0-.9.335-.9.7-.001.538.596.902 1.47.902Zm10.079.314a1.472 1.472 0 1 1 1.471 1.472 1.427 1.427 0 0 1-1.471-1.472Zm.168-8.7-.084-2.492h2.776l-.084 2.492-.451 5.719h-1.706Z"/><path d="M1.5 102.728a1.5 1.5 0 0 1-.156-2.992l160-17.009a1.5 1.5 0 0 1 .317 2.983l-160 17.01c-.056.005-.11.008-.161.008Zm0 4.92a.5.5 0 0 1-.053-1l160-17.01a.5.5 0 0 1 .106.995l-160 17.009Zm160-82.719c-.053 0-.106 0-.16-.008l-160-17.01a1.5 1.5 0 1 1 .317-2.983l160 17.01a1.5 1.5 0 0 1-.157 2.991Zm0-6.92h-.054L1.447 1a.5.5 0 0 1 .106-1l160 17.009a.5.5 0 0 1-.052 1Z" style="fill:#fff"/></g></svg>