<svg xmlns="http://www.w3.org/2000/svg" width="163" height="107.648"><g data-name="レイヤー 2"><path d="M17.527 48.06c-1.834.538-3.785 1.106-5.285 1.543l-.451-1.63c.6-.132 1.311-.321 2.1-.525v-2.926h-1.619v-1.586h1.616V40.4h-1.747v-1.6h5.1v1.6h-1.679v2.533h1.513v1.586h-1.513v2.49c.567-.16 1.165-.321 1.732-.481Zm6.463 2.023c.248 0 .321-.233.35-1.688a4.446 4.446 0 0 0 1.44.64c-.145 1.994-.523 2.533-1.6 2.533h-1.092c-1.34 0-1.631-.495-1.631-1.965V46.75h-.887c-.262 2.372-.932 4.061-4.033 4.978a5.087 5.087 0 0 0-.961-1.426c2.635-.655 3.1-1.849 3.29-3.552H17.8V38.6h7.1v8.15h-1.784v2.85c0 .422.03.48.278.48Zm-4.571-9.171h3.8v-.9h-3.8Zm0 2.213h3.8v-.9h-3.8Zm0 2.213h3.8v-.9h-3.8Zm13.452-3.596a16.937 16.937 0 0 1-1.339 1.878v8.006h-1.673v-6.172a14.443 14.443 0 0 1-1.282 1.121 10.514 10.514 0 0 0-.917-1.66 13.477 13.477 0 0 0 3.668-3.815Zm-.363-3.028a15.15 15.15 0 0 1-3.844 3.686 11.494 11.494 0 0 0-.858-1.456 11.022 11.022 0 0 0 3.071-2.882Zm8.064 6.041a9.616 9.616 0 0 1-2.5 4.12 10.79 10.79 0 0 0 3.537 1.266 7.189 7.189 0 0 0-1.109 1.543 10.5 10.5 0 0 1-3.813-1.674 13.473 13.473 0 0 1-3.655 1.674 7.1 7.1 0 0 0-.946-1.455 11.006 11.006 0 0 0 3.29-1.383 9.866 9.866 0 0 1-1.732-2.591l1.3-.393h-2.058V44.3h6.2l.32-.073ZM35.535 40.1a4.882 4.882 0 0 1-1.688 4.1 7.463 7.463 0 0 0-1.427-.975 3.54 3.54 0 0 0 1.471-3.173v-1.5h5.269v3.159c0 .262 0 .393.044.451a.282.282 0 0 0 .2.059h.306a.491.491 0 0 0 .219-.044c.057-.029.116-.117.145-.32s.044-.67.059-1.209a4.8 4.8 0 0 0 1.295.685 6.343 6.343 0 0 1-.218 1.572 1.068 1.068 0 0 1-.554.626 2.126 2.126 0 0 1-.873.174h-.874a1.585 1.585 0 0 1-1.091-.378c-.277-.277-.408-.6-.408-1.558v-1.7h-1.875Zm-.32 5.765a6.937 6.937 0 0 0 1.471 1.979 7.759 7.759 0 0 0 1.528-1.979Zm16.641-2.129a9.716 9.716 0 0 0 5.444 6.231 6.968 6.968 0 0 0-1.281 1.63 10.855 10.855 0 0 1-5.458-6.172 10.022 10.022 0 0 1-5.445 6.187 5.136 5.136 0 0 0-1.3-1.471 8.726 8.726 0 0 0 5.284-6.405h-5v-1.79h5.3c.145-1.368.131-2.693.145-3.887h1.893c-.015 1.194-.03 2.533-.175 3.887h5.717v1.79Zm21.022 4.105h-5.6v1.937c0 .9-.19 1.353-.9 1.6a8.832 8.832 0 0 1-2.823.276 7.708 7.708 0 0 0-.714-1.688c.932.043 2.009.043 2.3.029.306 0 .379-.058.379-.262v-1.892h-5.59v-1.586h5.59v-.961h.83a9.756 9.756 0 0 0 1.12-.8h-4.942v-1.5h6.536l.379-.087 1.091.844a14.093 14.093 0 0 1-3.159 2.5h5.5Zm-11.137-3.959h-1.629v-3.537h1.979a12.191 12.191 0 0 0-1.005-1.5l1.471-.655a7.909 7.909 0 0 1 1.324 1.91l-.523.248h2.285a10.183 10.183 0 0 0-.917-1.82l1.528-.553a8.563 8.563 0 0 1 1.136 2.1l-.7.277h2.2a12.253 12.253 0 0 0 1.252-2.213l1.878.568c-.393.553-.83 1.135-1.223 1.645h1.936v3.537h-1.7v-2.016h-9.292Zm27.093 5.648v1.7H75.747v-1.7h5.619V46.6h-3.945v-1.67h3.945v-2.562h-3.013A11.953 11.953 0 0 1 77 44.479a13.745 13.745 0 0 0-1.557-1.034 12.523 12.523 0 0 0 2.577-5.211l1.79.393c-.2.7-.437 1.383-.684 2.052h2.241v-2.62h1.82v2.62h4.906v1.689h-4.907v2.562h4.352v1.67h-4.352v2.93Zm8.474-9.447c-.1.436-.2.975-.306 1.5.481-.029.917-.058 1.223-.058 1.543 0 2.635.684 2.635 2.78a14.265 14.265 0 0 1-.83 5.343 2.326 2.326 0 0 1-2.387 1.339 9.408 9.408 0 0 1-1.747-.2l-.321-1.922a8.493 8.493 0 0 0 1.791.306 1.078 1.078 0 0 0 1.092-.626 11.588 11.588 0 0 0 .582-4.032c0-1.165-.5-1.325-1.412-1.325-.232 0-.6.029-1 .058a30.683 30.683 0 0 1-2.97 7.8l-1.892-.757a21.876 21.876 0 0 0 2.94-6.842c-.524.059-.975.117-1.252.146-.407.073-1.178.175-1.616.247l-.175-1.979a14.205 14.205 0 0 0 1.558 0 46.788 46.788 0 0 0 1.878-.117 16.163 16.163 0 0 0 .306-3.086l2.169.218a34.45 34.45 0 0 0-.266 1.207Zm7.832 5.575-1.849.859a16.74 16.74 0 0 0-2.446-5.532l1.732-.742a25.2 25.2 0 0 1 2.563 5.415Zm5.097-.67a7.127 7.127 0 0 1 4.293-1.383c2.548 0 4.033 1.573 4.033 3.334 0 2.649-2.1 4.687-8.152 4.178l-.553-1.907c4.367.6 6.681-.466 6.681-2.315 0-.946-.9-1.645-2.169-1.645a5.185 5.185 0 0 0-4.047 1.718 3.551 3.551 0 0 0-.538.844l-1.673-.422a53.529 53.529 0 0 0 .727-6.085l1.95.277c-.189.801-.451 2.577-.552 3.406Zm6.288-5.2-.437 1.776c-1.47-.189-4.716-.873-5.851-1.164l.465-1.747a44.43 44.43 0 0 0 5.823 1.138ZM16.392 59.276a25.7 25.7 0 0 1-1.165 2.81v10.2h-1.645V64.9c-.291.393-.6.786-.887 1.136a10.4 10.4 0 0 0-.961-1.805 15.326 15.326 0 0 0 3.012-5.445Zm5.9 3.683a15.723 15.723 0 0 0 3.547 5.841 7.09 7.09 0 0 0-1.3 1.34 12.281 12.281 0 0 1-1.164-1.543v1.281h-1.947v2.343h-1.689v-2.347h-1.907v-1.34a10.028 10.028 0 0 1-1.3 1.645 7.064 7.064 0 0 0-1.237-1.31 14.879 14.879 0 0 0 3.624-5.91h-2.862v-1.645h3.682V58.8h1.689v2.518h4.018v1.645Zm-2.548 5.372v-3.7a18.936 18.936 0 0 1-1.775 3.7Zm3.48 0a21.229 21.229 0 0 1-1.791-3.8v3.8Zm4.466 2.693a6.777 6.777 0 0 0 .727-3.2l.961.189a6.939 6.939 0 0 1-.815 3.494Zm11.194-2.766a5.475 5.475 0 0 0 2.722 2.678 6.715 6.715 0 0 0-1.092 1.369 6.312 6.312 0 0 1-2.722-3.057 6.4 6.4 0 0 1-3.232 3.1 5.747 5.747 0 0 0-.844-1.019 1.189 1.189 0 0 1-.189.408 1.154 1.154 0 0 1-.873.509 5.629 5.629 0 0 1-1.282.044 3.314 3.314 0 0 0-.349-1.339 8.159 8.159 0 0 0 .887.058.437.437 0 0 0 .394-.189 3.4 3.4 0 0 0 .247-1.267l-.466.175a8.559 8.559 0 0 0-.654-1.878l.683-.233a8.322 8.322 0 0 1 .5 1.179c.029-.436.058-.975.086-1.6h-4.167v-7.934h5.358v1.4h-1.558v.8H33.6v.771a9.3 9.3 0 0 0 3.173-3.493h1.485a9.394 9.394 0 0 0 3.421 3.275 9.957 9.957 0 0 0-.859 1.485 6.582 6.582 0 0 1-.947-.67v.8h-1.455v.786h2.606v3.843Zm-8.633-.2a14.229 14.229 0 0 1 .146 2.664l-.786.1a17.3 17.3 0 0 0-.1-2.693Zm-.291-7.4v.8h.99v-.8Zm0 2.111v.873h.99v-.872Zm0 3.086h.99v-.9h-.99Zm1.267 2.052a12.082 12.082 0 0 1 .48 2.344l-.757.16a10.934 10.934 0 0 0-.451-2.358Zm2.94-2.052s0 .378-.014.568A35.771 35.771 0 0 1 33.8 71a5.139 5.139 0 0 0 2.679-2.737h-2.065v-3.848h2.475v-.786H35.4v-.786a8.48 8.48 0 0 1-1.121.829 8.039 8.039 0 0 0-.683-1.237v.335h-1.263v.873H33.6v1.31h-1.267v.9Zm2.635 1.15a7.835 7.835 0 0 0 .087-1.3v-.043h-1.063v1.339Zm2.475-4.7a10.3 10.3 0 0 1-1.7-2.067 10.87 10.87 0 0 1-1.6 2.067Zm-.859 3.363v.058a12.672 12.672 0 0 1-.058 1.281h1.193v-1.34Zm10.832-3.175h-5.531v-1.368h5.531Zm-.466 9.055h-2.969v.567H44.36v-4.963h4.424Zm-.014-7.075H44.4v-1.325h4.37Zm-4.367.67h4.367v1.3H44.4Zm4.323-4.659h-4.28v-1.31h4.28Zm-2.911 8.036v1.674h1.5V68.52Zm8.6-.2a4.973 4.973 0 0 0 2.985 2.543 13.629 13.629 0 0 0-.991 1.471 5.382 5.382 0 0 1-3.144-3.2 5.8 5.8 0 0 1-3.465 3.2 7.24 7.24 0 0 0-.945-1.412c2.78-.976 3.522-2.882 3.522-3.858v-2.2h1.762v2.2a3.133 3.133 0 0 0 .276 1.223 15.816 15.816 0 0 0 1.15-2.518l1.7.524a27.7 27.7 0 0 1-1.529 2.5Zm-5.488.117a4.654 4.654 0 0 0 1.273-2.566l1.514.305a5.562 5.562 0 0 1-1.353 2.97Zm7.191-2.955a21.653 21.653 0 0 0-2.911-2.111 5.49 5.49 0 0 1-3.107 2.223 4.255 4.255 0 0 0-.961-1.368c3.027-.947 3.261-2.606 3.377-5.488h1.674a15.3 15.3 0 0 1-.364 3.173 30.276 30.276 0 0 1 3.45 2.256Zm-4.338-5.6a5.184 5.184 0 0 1-1.15 2.693l-1.354-.582a4.709 4.709 0 0 0 1.092-2.4Zm5.357.146c-.481.844-1 1.732-1.412 2.343l-1.281-.5A12.78 12.78 0 0 0 55.5 59.5Zm8.331.835c-.087.437-.2.975-.306 1.5.495-.029.917-.058 1.223-.058 1.543 0 2.635.684 2.635 2.78a14.266 14.266 0 0 1-.829 5.343 2.315 2.315 0 0 1-2.391 1.338 9.561 9.561 0 0 1-1.747-.2l-.306-1.921a8.426 8.426 0 0 0 1.777.3 1.066 1.066 0 0 0 1.091-.625 11.56 11.56 0 0 0 .6-4.033c0-1.164-.51-1.324-1.412-1.324-.232 0-.6.029-1.019.058a30.687 30.687 0 0 1-2.969 7.8l-1.893-.757a22.285 22.285 0 0 0 2.955-6.841c-.524.058-.99.116-1.252.145-.422.073-1.179.175-1.63.248l-.174-1.98a13.943 13.943 0 0 0 1.557 0 31.04 31.04 0 0 0 1.878-.131 14.955 14.955 0 0 0 .306-3.072l2.169.219c-.088.381-.19.848-.263 1.211Zm6.173.233-.714.306a26.43 26.43 0 0 1 2.373 5.08l-1.849.844a16.372 16.372 0 0 0-2.446-5.459l1.311-.567a15.983 15.983 0 0 0-.991-1.718l1.151-.48c.364.538.887 1.455 1.165 1.998Zm1.731-.67-1.149.495a16.435 16.435 0 0 0-1.18-2.009l1.165-.465a19.387 19.387 0 0 1 1.164 1.979Zm7.864 1.874c.043-.247.086-.524.116-.8h-5.531v-1.583h5.691c.029-.437.044-.859.059-1.238l2.038.059c-.059.393-.1.786-.175 1.179h5.284V61.5h-5.547c-.058.277-.1.554-.16.8h4.207v6.915h-7.831V62.3Zm7.627 9.375H78.207v.655h-1.718v-9.575h1.718v7.308h10.656ZM85.5 63.512h-4.483v.743H85.5Zm0 1.878h-4.483v.728H85.5Zm0 1.878h-4.483v.742H85.5Zm15.127-2.402c-.145.335-.306.7-.48 1.048h4.687v1.456h-1.572a6.434 6.434 0 0 1-1.034 2.344 16.692 16.692 0 0 1 2.446 1.31l-1.092 1.3a17.59 17.59 0 0 0-2.562-1.456 11.639 11.639 0 0 1-4.92 1.485 4.6 4.6 0 0 0-.641-1.4 11.68 11.68 0 0 0 3.858-.83c-.364-.145-.728-.291-1.078-.407l-.145.262L96.6 69.5c.335-.582.713-1.339 1.077-2.125h-1.752v-.786c-.364.1-.728.218-1.092.32v3.465c0 .858-.145 1.324-.611 1.586a4.3 4.3 0 0 1-2.169.35 6.277 6.277 0 0 0-.481-1.689c.568.029 1.166.029 1.354.015s.248-.059.248-.277V67.37l-1.616.437-.364-1.674a94.438 94.438 0 0 0 1.98-.452v-2.62h-1.688v-1.587h1.688v-2.736h1.659v2.736h1.121v1.587h-1.121v2.213l1.107-.291.116.931h2.271q.242-.546.437-1.048h-2.955V63.4h2.183a9.862 9.862 0 0 0-.422-1.776l.292-.058h-1.617v-1.46h3.246v-1.383h1.762v1.383h3.247v1.456h-1.194c-.233.669-.48 1.31-.7 1.834h2.242v1.47Zm-1.18 2.5c-.174.364-.363.728-.538 1.077.568.175 1.179.393 1.8.626a4.456 4.456 0 0 0 .845-1.7Zm-.305-5.808a7.508 7.508 0 0 1 .436 1.819l-.057.015h1.528a14.132 14.132 0 0 0 .553-1.834Zm10.439 2.742v8.021h-1.688V59.276h5.6V64.3Zm0-3.8v.713h2.286V60.5Zm2.286 2.577v-.757h-2.286v.757Zm4.775 3.013v5.823h-1.558v-.859c-1.732.131-3.435.247-4.731.364l-.073-1.3 1-.058v-3.971h-.858V64.9h7.089v1.194Zm-1.558 0H112.8v.582h2.285Zm0 1.543H112.8v.626h2.285Zm-2.284 2.343c.728-.044 1.5-.088 2.285-.146v-.63H112.8Zm7.365.334c0 .859-.145 1.354-.655 1.631a4.871 4.871 0 0 1-2.3.335 6.04 6.04 0 0 0-.51-1.718c.612.029 1.267.029 1.486.014.2 0 .276-.072.276-.291v-5.954h-4v-5.051h5.706ZM116.1 60.5v.713h2.358V60.5Zm2.358 2.606v-.786H116.1v.786Zm7.865-2.199c-.364 1.615-.873 4.672-.48 6.477.189-.451.451-1.15.7-1.688l.9.582a36.094 36.094 0 0 0-.991 3.552 3.356 3.356 0 0 0-.087.713c0 .146.015.393.03.6l-1.617.16a15.834 15.834 0 0 1-.83-4.716 40.975 40.975 0 0 1 .466-5.808 9.932 9.932 0 0 0 .1-1.267l2.154.219a11.883 11.883 0 0 0-.345 1.176Zm7.512-.437v1.863a18.968 18.968 0 0 0 2.184-.262L136 63.964c-.582.072-1.34.131-2.154.174v.612c0 3.435-.263 5.546-3.174 7.394L129 70.82a5.654 5.654 0 0 0 1.689-1.165c1.121-1.164 1.353-2.46 1.353-4.92v-.524a60.14 60.14 0 0 1-1.63.029c-.626 0-1.528-.043-2.242-.073v-1.848a15.453 15.453 0 0 0 2.2.16c.525 0 1.092-.015 1.645-.029-.014-.816-.028-1.572-.058-1.966a6.831 6.831 0 0 0-.16-1h2.11c-.043.316-.057.666-.072.986Zm8.271-.437c.771 0 3.886-.058 4.715-.131a6.38 6.38 0 0 0 1.107-.16l.946 1.3c-.335.218-.684.422-1.018.669-.786.553-2.316 1.834-3.233 2.562a5.712 5.712 0 0 1 1.383-.16c2.476 0 4.353 1.543 4.353 3.668 0 2.3-1.746 4.12-5.27 4.12-2.023 0-3.552-.932-3.552-2.387a2.44 2.44 0 0 1 2.606-2.271 2.912 2.912 0 0 1 3.1 2.489 2.11 2.11 0 0 0 1.209-1.98c0-1.31-1.31-2.2-3.028-2.2-2.227 0-3.683 1.179-5.24 2.955l-1.325-1.368c1.034-.83 2.795-2.315 3.654-3.028.815-.669 2.329-1.892 3.042-2.518-.742.014-2.751.1-3.523.145a23.35 23.35 0 0 0-1.193.117l-.059-1.893a9.981 9.981 0 0 0 1.326.071Zm2.62 10.2a7.627 7.627 0 0 0 .844-.044c-.087-.946-.626-1.558-1.413-1.558-.552 0-.9.335-.9.7-.002.543.595.907 1.469.907Zm10.955.319a1.472 1.472 0 1 1 1.472 1.472 1.427 1.427 0 0 1-1.472-1.472Zm.167-8.7-.084-2.492h2.776l-.084 2.492-.451 5.72H156.3Z"/><path d="M161.5 102.728a1.444 1.444 0 0 1-.16-.009L1.342 85.71a1.5 1.5 0 1 1 .317-2.983l160 17.009a1.5 1.5 0 0 1-.157 2.992Zm0 4.92a.5.5 0 0 1-.054 0l-160-17.009a.5.5 0 0 1 .106-.995l160 17.009a.5.5 0 0 1-.052 1ZM1.5 24.929a1.5 1.5 0 0 1-.156-2.992l160-17.009a1.5 1.5 0 0 1 .317 2.983l-160 17.01c-.056.005-.11.008-.161.008Zm0-6.92a.5.5 0 0 1-.053-1L161.447 0a.5.5 0 1 1 .106.994l-160 17.009Z" style="fill:#fff"/></g></svg>