<svg version="1.1" id="_x32_" xmlns="http://www.w3.org/2000/svg" x="0" y="0" viewBox="0 0 512 512" style="width:64px;height:64px;opacity:1" xml:space="preserve"><style>.st0{fill:#4b4b4b}</style><path class="st0" d="M440.822 238.405c53.91 57.082-75.63 100.268-171.476 41.089a174.662 174.662 0 0 1-13.341-9.094 173.527 173.527 0 0 1-13.35 9.094c-95.872 59.18-225.404 15.994-171.494-41.089-107.439 35.141-85.375 142.855 13.784 146.962 87.05 3.596 140.775-43.653 171.061-85.491 30.276 41.838 84.001 89.087 171.052 85.491 99.159-4.107 121.223-111.821 13.764-146.962z" style="fill:#4b4b4b"/><path class="st0" d="M132.263 225.637c0 14.125 11.332 25.562 25.307 25.562 13.975 0 25.307-11.438 25.307-25.562 0-14.117-11.332-25.546-25.307-25.546-13.975.001-25.307 11.43-25.307 25.546zm196.853 0c0 14.125 11.332 25.562 25.307 25.562 13.984 0 25.316-11.438 25.316-25.562 0-14.117-11.332-25.546-25.316-25.546-13.975.001-25.307 11.43-25.307 25.546zm5.974 184.164-63.268-25.563-15.826 3.199-15.816-3.199-63.277 25.563c-15.818 3.182-6.327 25.554 6.326 19.165 12.654-6.388 56.951-28.762 56.951-28.762l15.816 3.199 15.826-3.199s44.288 22.373 56.942 28.762c12.653 6.39 22.144-15.983 6.326-19.165zm-103.537-241.66L79.217 81.892l-37.494 67.083 189.83 57.496zm206.115-86.249-152.337 86.249v38.33l189.831-57.496z" style="fill:#4b4b4b"/></svg>