<svg xmlns="http://www.w3.org/2000/svg" width="127.421" height="127.421"><g data-name="レイヤー 2"><circle cx="67.889" cy="67.888" r="59.533"/><circle cx="61.533" cy="61.533" r="59.533" style="fill:#fff"/><path d="M61.533 123.065a61.533 61.533 0 1 1 61.533-61.532 61.6 61.6 0 0 1-61.533 61.532ZM61.533 4a57.533 57.533 0 1 0 57.533 57.533A57.6 57.6 0 0 0 61.533 4Z"/><path style="fill:#ffd500" d="M98.97 66.571H15.544l7.623-17.703h83.426L98.97 66.571z"/><path d="M39.254 56.41h11.2v3.24H24.692v-3.24H35.5v-3.6h-8.386v-3.151H35.5v-3.481h-6.842v-2.392a38.594 38.594 0 0 1-3.36 2.089 13.3 13.3 0 0 0-2.271-2.906A33.031 33.031 0 0 0 35.318 32.01h3.724A32 32 0 0 0 52 42.606a17.574 17.574 0 0 0-2.392 3.239 38.363 38.363 0 0 1-3.269-2.028v2.361h-7.085v3.481h8.476v3.149h-8.476ZM45.157 43a36.477 36.477 0 0 1-7.81-7.507A34.877 34.877 0 0 1 29.778 43Zm36.477-9.718v27.094h-3.845v-1.513H59.867v1.513H56.2V33.282Zm-3.845 22.251V36.581H59.867v18.952Zm-1.06-4.693v2.937H61.048V50.84h6.085v-3.572h-4.995v-3.027h4.995V41.4h-5.752v-3.154h14.864V41.4h-5.782v2.846h5.116v3.027h-1.665a23.552 23.552 0 0 1 2.271 2.694l-1.575.878Zm-6.266 0h3.027a23.028 23.028 0 0 0-2.058-2.634l1.846-.938h-2.815Zm25.65 3.874-1.488-2.363a15.231 15.231 0 0 0 1.846-.317A5.388 5.388 0 0 0 101 46.713a4.909 4.909 0 0 0-4.169-5.241 40.091 40.091 0 0 1-1.191 5.38c-1.191 4.01-2.9 6.472-5.062 6.472-2.2 0-4.03-2.422-4.03-5.777a8.82 8.82 0 0 1 9.112-8.5c4.923 0 8.02 3.415 8.02 7.743-.003 4.191-2.564 7.149-7.567 7.924Zm-5.459-4.447c.834 0 1.608-1.251 2.422-3.931a29.705 29.705 0 0 0 1.052-4.8 6.249 6.249 0 0 0-5.042 5.757c0 2.001.794 2.974 1.568 2.974ZM41.958 85.484h-7.131v2.464c0 1.149-.241 1.723-1.149 2.038a11.226 11.226 0 0 1-3.594.352 9.846 9.846 0 0 0-.907-2.149c1.185.056 2.556.056 2.927.037.389 0 .481-.074.481-.333v-2.409h-7.113v-2.019h7.113v-1.222h1.056a12.581 12.581 0 0 0 1.426-1.019h-6.279v-1.908H37.1l.482-.111 1.389 1.074a17.926 17.926 0 0 1-4.02 3.186h7Zm-14.17-5.038h-2.075v-4.5h2.519a15.728 15.728 0 0 0-1.278-1.909l1.871-.833a10.107 10.107 0 0 1 1.686 2.427l-.667.315h2.908a12.93 12.93 0 0 0-1.167-2.316l1.945-.7a10.872 10.872 0 0 1 1.445 2.668l-.89.352h2.8a15.54 15.54 0 0 0 1.593-2.816l2.39.722c-.5.7-1.056 1.445-1.556 2.094h2.463v4.5h-2.169v-2.56H27.788Zm33.544 7.187V89.8H44.679v-2.167h7.15V83.91h-5.02v-2.13h5.02v-3.261h-3.835a15.194 15.194 0 0 1-1.723 2.686 17.591 17.591 0 0 0-1.981-1.315 15.946 15.946 0 0 0 3.278-6.632l2.279.5c-.26.889-.556 1.759-.871 2.612h2.853v-3.334h2.316v3.335h6.242v2.148h-6.242v3.261h5.538v2.13h-5.538v3.723Zm9.926-9.077a25.3 25.3 0 0 1-1.519 5.391 18.342 18.342 0 0 1 1.908 3l-1.759 1.5a17.347 17.347 0 0 0-1.26-2.278 12.465 12.465 0 0 1-3.8 4 9.728 9.728 0 0 0-1.482-1.723 10.277 10.277 0 0 0 3.945-4.2 54.378 54.378 0 0 0-3.093-3.76l1.574-1.241c.8.852 1.63 1.8 2.445 2.778a21.627 21.627 0 0 0 .889-3.741Zm9.559.686h-1.983v8.336c0 1.241-.222 1.889-.925 2.241a7.385 7.385 0 0 1-3.335.482 9.051 9.051 0 0 0-.7-2.371c1.038.055 2.038.037 2.353.037.333 0 .444-.093.444-.389v-8.336h-4.653v-1.334h-8.151V75.87h3.223v-2.834h2.11v2.834h3.427v1.26h4.038v-4.112h2.167v4.112h1.983Zm-7.225 1.463a14.525 14.525 0 0 1 2.056 3.909l-1.907.982a15.466 15.466 0 0 0-1.908-4.039Zm26.098 2.038a34.32 34.32 0 0 1-3.909 2.167 9.351 9.351 0 0 0 4.3 3 9.819 9.819 0 0 0-1.408 1.852c-3.52-1.444-5.557-4.334-6.724-8.28a17.237 17.237 0 0 1-1.538.834c3.779 2.538 3.779 6.279 1.89 7.484a3.61 3.61 0 0 1-2.149.611c-.444 0-.982-.019-1.482-.037a4.155 4.155 0 0 0-.63-1.964 25.15 25.15 0 0 1-3.76 1.39 12.526 12.526 0 0 0-1.26-1.594 22.538 22.538 0 0 0 7.651-3.186 4.681 4.681 0 0 0-.389-.5 21.688 21.688 0 0 1-5.761 2.353 9.019 9.019 0 0 0-1.186-1.482 21.832 21.832 0 0 0 5.78-1.89 18.55 18.55 0 0 0-.593-.389 38.294 38.294 0 0 1-4.131 1.241 11.6 11.6 0 0 0-1.114-1.553 28.865 28.865 0 0 0 5.335-1.389h-3.5v-2.873a7 7 0 0 1-.63.407 7.306 7.306 0 0 0-1.463-1.556 13.522 13.522 0 0 0 5.02-4.445l2.3.444q-.277.39-.556.778h3.257l.333-.092 1.5.981a15.292 15.292 0 0 1-1.241 1.723H98.1v4.631h-4.2a13.586 13.586 0 0 0 .944 2.112 23.214 23.214 0 0 0 3.076-2.075Zm-12.5-2.927h3.168V78.39h-3.172Zm1.186-4a12.284 12.284 0 0 1-.982.963h3.686a9.495 9.495 0 0 0 .741-.963Zm3.019 10.707a21.122 21.122 0 0 1-3.316 1.871 14.473 14.473 0 0 0 1.7.074 1.724 1.724 0 0 0 1.131-.278 1.51 1.51 0 0 0 .481-1.668Zm4.557-8.132H92.5v1.426h3.446Z"/></g></svg>