<svg xmlns="http://www.w3.org/2000/svg" viewBox="0 0 279.07 50"><defs><style>.cls-3{fill:#ffd400}.cls-4{fill:#fff}</style></defs><g id="レイヤー_2" data-name="レイヤー 2"><g id="ライン上"><path d="M8.2 8v.57c.11 1.54.71 6.76 5.06 8.76a3.67 3.67 0 0 0-.83.91A9.34 9.34 0 0 1 7.68 12a9.62 9.62 0 0 1-4.47 6.28 3.68 3.68 0 0 0-.9-.85C7 15 6.89 9.55 7 8Zm17.98 8.71v1H15.85v-1h4.61V14h-3.32v-1h3.32v-2.33h-2.58a9.92 9.92 0 0 1-1.16 1.81 7.28 7.28 0 0 0-1-.66 10 10 0 0 0 2.1-4.21l1.18.26c-.18.59-.39 1.19-.61 1.74h2.11V7.45h1.11v2.16h4.05v1.06h-4.09V13h3.62v1h-3.62v2.68Zm7.18-7.77c-.07.36-.18.92-.28 1.47.48-.05.91-.07 1.17-.07 1.12 0 2 .45 2 2.08a11.24 11.24 0 0 1-.66 4.22 1.74 1.74 0 0 1-1.79 1 6.69 6.69 0 0 1-1.39-.17l-.2-1.21a6.17 6.17 0 0 0 1.43.23.93.93 0 0 0 1-.55 9.56 9.56 0 0 0 .51-3.42c0-1-.45-1.17-1.19-1.17a9.73 9.73 0 0 0-1 .07 24.34 24.34 0 0 1-2.41 6.26l-1.2-.48a18.29 18.29 0 0 0 2.41-5.66c-.52 0-1 .11-1.27.15s-.84.1-1.15.16l-.12-1.26a8.52 8.52 0 0 0 1.13 0c.37 0 1 0 1.65-.11A12.67 12.67 0 0 0 32.17 8l1.36.14c-.06.24-.11.54-.17.8Zm5.09.41-.74.31a19.93 19.93 0 0 1 1.91 3.93l-1.15.55a13.37 13.37 0 0 0-2-4.26l1.08-.47v.07a9.8 9.8 0 0 0-.83-1.42l.76-.32a16.11 16.11 0 0 1 .97 1.61Zm1.35-.51-.8.33a10.76 10.76 0 0 0-1-1.6l.75-.32a16.15 16.15 0 0 1 1.05 1.59ZM50.79 14a6.64 6.64 0 0 1-2.33 2.35 15.08 15.08 0 0 0 4.2.8 4.56 4.56 0 0 0-.63 1 13.17 13.17 0 0 1-4.74-1.2 17.79 17.79 0 0 1-4.8 1.23 3 3 0 0 0-.52-1 18.31 18.31 0 0 0 4.28-.89A6.6 6.6 0 0 1 44.87 15 10.53 10.53 0 0 1 43 16a3 3 0 0 0-.69-.8A7.58 7.58 0 0 0 46 12.66l1.14.21c-.17.22-.34.44-.53.65h3.47Zm-5.92-3.64a7.2 7.2 0 0 1-2.11 2.35A5.54 5.54 0 0 0 42 12a5.12 5.12 0 0 0 1.84-2Zm2-.76a4.08 4.08 0 0 1-2 3.83 3.67 3.67 0 0 0-.79-.73 3.26 3.26 0 0 0 1.74-3.13h-3.59v-1h4.49V7.44h1.11v1.08h4.54v1H49.3v2.35c0 .49 0 .77-.43.92a4.56 4.56 0 0 1-1.61.15A4.92 4.92 0 0 0 47 12h1.11c.11 0 .18 0 .18-.16V9.52h-1.38Zm-1.26 4.86a5.39 5.39 0 0 0 1.7 1.39 6.12 6.12 0 0 0 1.84-1.41h-3.49Zm5-4.42a12.72 12.72 0 0 1 2 2.21l-.92.54a12.56 12.56 0 0 0-1.89-2.26Zm7.14-2.16h1.36a16.85 16.85 0 0 0-.24 1.67l.39.49c-.13.21-.36.55-.54.84v.57a5.85 5.85 0 0 1 3.58-1.34 3 3 0 0 1 3.12 3c0 2.35-1.59 3.66-4.29 4.18l-.54-1.11c2-.3 3.63-1.17 3.62-3.09a2 2 0 0 0-2.09-1.93 5.21 5.21 0 0 0-3.48 1.58v4.11c0 .21 0 .54.06.79h-1.27v-3.82c-.55.81-1.24 1.81-1.72 2.48l-.72-1c.65-.82 1.9-2.49 2.53-3.44 0-.33 0-.68.07-1l-2.21.29-.04-1.15a8.73 8.73 0 0 0 .88 0c.36 0 1-.09 1.52-.17 0-.5.06-.89.06-1a6.05 6.05 0 0 0-.05-.95ZM70 8.55c.6 0 3.25-.07 3.88-.13a3.39 3.39 0 0 0 .74-.11l.64.84a7.91 7.91 0 0 0-.73.5c-.59.44-2 1.65-2.85 2.33a4.84 4.84 0 0 1 1.4-.2c1.94 0 3.38 1.2 3.38 2.82 0 1.85-1.48 3.18-4.09 3.18-1.61 0-2.68-.71-2.68-1.77a1.77 1.77 0 0 1 1.92-1.64 2.3 2.3 0 0 1 2.42 2 1.9 1.9 0 0 0 1.23-1.83c0-1.09-1.07-1.88-2.52-1.88-1.86 0-2.95.87-4.33 2.33l-.84-.86 3-2.53c.65-.54 2-1.65 2.58-2.16-.61 0-2.63.11-3.23.15a7.88 7.88 0 0 0-.86.07v-1.2c.27.07.63.09.94.09Zm2.16 8.18a5.31 5.31 0 0 0 .82-.05 1.43 1.43 0 0 0-1.37-1.44.78.78 0 0 0-.85.67c-.03.51.54.82 1.37.82Zm7.55-.15c3-2.37 5.07-4.37 5.07-6a1.83 1.83 0 0 0-2-1.91 3.36 3.36 0 0 0-2.49 1.38l-.75-.66a4.32 4.32 0 0 1 3.3-1.69 2.78 2.78 0 0 1 3.1 2.85c0 1.9-1.93 3.82-4.34 5.79.51 0 1-.08 1.49-.08h3.31v1h-6.69Zm13.07-.91a3.11 3.11 0 0 0 2.74 1.25c1.35 0 4.12 0 5.6-.08a6.13 6.13 0 0 0-.32 1c-1.37.06-3.9.08-5.27 0a3.88 3.88 0 0 1-3.18-1.35c-.47.48-1 1-1.5 1.46l-.55-1a17.77 17.77 0 0 0 1.48-1.2V13h-1.33v-1h2.33Zm-.69-5.45a8.21 8.21 0 0 0-1.65-2l.86-.53A8.43 8.43 0 0 1 93 9.6Zm2.86.6a10.92 10.92 0 0 1-1.1 5.45 4 4 0 0 0-.85-.56 9.65 9.65 0 0 0 1-4.89v-3h6.42v7.46c0 .51-.1.78-.43.94a4.58 4.58 0 0 1-1.65.16 3.27 3.27 0 0 0-.29-.92h1.16c.16 0 .21-.06.21-.22V8.73H95Zm1.7.38v-.81H95.4v-.75h1.25v-.72h.91v.72h1.36v.75h-1.36v.81H99v.8h-3.67v-.8Zm-.25 4.45h-.84v-3.14h3.1v2.58H96.4Zm0-2.4v1.09h1.42v-1.09Zm8.88-1.25v6.16h-1.07V7.91h4.29v4Zm0-3.23v.8h2.2v-.8Zm2.2 2.43v-.86h-2.2v.86Zm6.34 5.62c0 .61-.13 1-.55 1.15a6.05 6.05 0 0 1-2 .18 5.2 5.2 0 0 0-.34-1.06h-3.14v.59h-1v-4.93h4.36V17h1.32c.19 0 .26-.07.26-.27V12h-3.3V7.91h4.4Zm-6-3.2v.9h2.36v-.9Zm2.36 2.66v-1h-2.36v1Zm.33-7.51v.8h2.26v-.8Zm2.26 2.45v-.88h-2.26v.88ZM12.26 41.45l.2 2.46c-4.12.81-8.59 1.61-11.79 2.2L0 43.51l1.83-.29v-8h2.46v7.65l1.71-.3v-8.81h2.52v2.5h3.2v2.35h-3.2v3.51ZM15 33.11c.44 6.08 1.56 10.67 3 10.67.42 0 .67-1.23.76-4.05a7 7 0 0 0 2.19 1.48c-.36 4.16-1.21 5.21-3.2 5.21-3.38 0-4.83-5.93-5.37-13.31H.43v-2.44h11.74c-.07-1.65-.11-3.38-.11-5.08h2.7c0 1.73 0 3.45.05 5.08h5.61v2.44Zm-4.39-4.23H2.13v-2.37h8.45Zm7.7 1.45a16.84 16.84 0 0 0-2.93-3.17l1.81-1.39a15 15 0 0 1 3.06 3.07Zm17.35 4.28c-.88.62-1.73 1.21-2.64 1.79h8.14v9.93h-2.8v-.58h-7.69v.67H28V39.1c-1.12.5-2.28 1-3.43 1.41A14 14 0 0 0 23 38.32a39.79 39.79 0 0 0 8.3-3.71h-7.6v-2.35h7.18v-2h-5.29v-2.3h5.26V25.5h2.64v2.42h4.85V29a28 28 0 0 0 2.31-2.85l2.28 1.17a33.6 33.6 0 0 1-4.41 4.92h5.19v2.35Zm2.7 4h-7.69V40h7.69Zm0 5V42h-7.69v1.52Zm-4.87-11.35h1.23a29.8 29.8 0 0 0 2.41-2h-3.64Zm19.44-5.95c-.47 1.39-1 2.84-1.66 4.23v15.83h-2.53V35.19a16.16 16.16 0 0 1-1.41 1.88 21.25 21.25 0 0 0-1.27-2.87 25.34 25.34 0 0 0 4.43-8.63Zm12.52 3.58A11.92 11.92 0 0 1 63 33.18a17.38 17.38 0 0 0 4.88 1.49 10.72 10.72 0 0 0-1.43 2.13 16.94 16.94 0 0 1-5.33-2.13A19.14 19.14 0 0 1 56 37a9.43 9.43 0 0 0-1.16-1.61v7.29h-2.32V28.34h2.31v2.38a13.64 13.64 0 0 0 3.35-5.22l2.4.56a15.43 15.43 0 0 1-.72 1.68h7.27v2.15Zm-10.62 5a17 17 0 0 0 4.27-1.69 14.66 14.66 0 0 1-1.65-1.72 12.73 12.73 0 0 1-1.3 1.34 13.29 13.29 0 0 0-1.32-1.08Zm12.46 6.4C65 44 61 45.48 56.44 46.31a9.6 9.6 0 0 0-1.34-2.11c4.11-.56 8-1.76 9.91-3.87Zm-4.14-4.67a14.46 14.46 0 0 1-5.68 3.13 7.18 7.18 0 0 0-1.41-1.52 13.43 13.43 0 0 0 5.14-2.42Zm2.15 2c-1.77 1.92-4.75 3.27-7.79 4A8.26 8.26 0 0 0 56.22 41c2.79-.58 5.7-1.7 7.18-3.17Zm-6.56-8.7A10.89 10.89 0 0 0 60.89 32a8.76 8.76 0 0 0 1.79-2.06ZM79 31.32a30.28 30.28 0 0 1-2.39 3.42v11.68H74v-8.75c-.63.61-1.23 1.17-1.84 1.66A25.27 25.27 0 0 0 70.33 37a21.71 21.71 0 0 0 6.15-6.69Zm-.83-4.77a29.82 29.82 0 0 1-6.15 5.89 14.79 14.79 0 0 0-1.47-2.17 19.94 19.94 0 0 0 5-4.77Zm13.16 8.91h-3.04v7.85c0 1.43-.27 2.17-1.25 2.57a12.39 12.39 0 0 1-4.36.45 11.31 11.31 0 0 0-.81-2.71c1.28.07 2.75.07 3.16.05s.56-.09.56-.43v-7.78H79v-2.53h12.36Zm-.56-6.15H79.93v-2.53H90.8ZM113 24.84a2.81 2.81 0 0 1 0 5.62 1.09 1.09 0 0 1-.31 0c-.07.26-.11.5-.19.71-.54 2.3-1.55 5.94-3.52 8.55a18.88 18.88 0 0 1-9.44 6.5L97 43.37a15.38 15.38 0 0 0 9.21-5.52 14.81 14.81 0 0 0 2.75-6.62H98c-1.08 0-2.21.05-2.8.1V28a24.65 24.65 0 0 0 2.8.19h10.87a10.2 10.2 0 0 0 1.34-.09 2.06 2.06 0 0 1 0-.45 2.83 2.83 0 0 1 2.79-2.81Zm0 4.16a1.35 1.35 0 1 0-1.36-1.34A1.35 1.35 0 0 0 113 29Zm7.74-.73h15.24v16.99h-3.24V44h-11.29v1.26h-3.24c0-.11.07-2.16.07-3.28V28.23c.94.02 1.83.04 2.46.04Zm.71 12.73h11.34v-9.75h-11.34Zm37.01-12.14-1.74.73 2 1.22a9.14 9.14 0 0 0-.78 1.69 23.74 23.74 0 0 1-4.11 7.82 21.88 21.88 0 0 1-9.46 6.68l-2.77-2.49a18.79 18.79 0 0 0 9.46-5.83 16.65 16.65 0 0 0 3.34-6.39h-6.6a26.43 26.43 0 0 1-5.94 5.71l-2.63-2a20.32 20.32 0 0 0 7.33-7.56 10.54 10.54 0 0 0 1.05-2.44l3.45 1.13a26 26 0 0 0-1.43 2.39c0 .05 0 .07-.07.12h4.7a7.56 7.56 0 0 0 2-.28l.17.09a27.22 27.22 0 0 0-1.72-3l1.86-.75a30.94 30.94 0 0 1 1.89 3.16Zm2.82-1.08-1.86.8a23.88 23.88 0 0 0-1.9-3.24l1.86-.75a32.19 32.19 0 0 1 1.9 3.19Zm19.89 6.88a16.72 16.72 0 0 1-3.47 6.5 17.65 17.65 0 0 1-8.38 5.08L167 43.58a15.77 15.77 0 0 0 8.13-4.11 10.17 10.17 0 0 0 2.41-4.06h-11.35c-.56 0-1.74 0-2.72.12v-3.05c1 .07 2 .14 2.72.14h11.63a4.93 4.93 0 0 0 1.71-.24l2.09 1.29c-.16.33-.35.73-.45.99ZM168.07 27h9a20.9 20.9 0 0 0 2.54-.12v3c-.64 0-1.74-.07-2.59-.07h-9c-.75 0-1.76 0-2.44.07v-3a18.62 18.62 0 0 0 2.49.12Zm25.01 2.78c-.75 2.3-2.65 8.26-3.82 11.41 2.86-.28 6.2-.66 8.57-.94a27.71 27.71 0 0 0-2.47-4.3l2.94-1.2a72.12 72.12 0 0 1 5.14 9.77l-3.17 1.41c-.3-.8-.68-1.76-1.13-2.77-3.8.45-10.92 1.2-13.88 1.5l-2.2.29-.54-3.43h3.21c1.37-3.48 3.39-9.91 4.07-12.35a16.53 16.53 0 0 0 .56-2.73l3.73.78c-.3.65-.65 1.52-1.01 2.56ZM203.74 26h-2v-.74h4.77V26h-2v5h-.81Zm3.76-.74h1.06l.95 2.31.57 1.57h.07l.56-1.57.93-2.31h1.06V31h-.77v-2.89l.1-1.86H212l-1.52 3.88h-.7l-1.48-3.88h-.09l.1 1.86V31h-.77Z"/><path d="M258 14.5c-2.09 0-3.76 1.19-3.76 2.82 0-1.63-1.67-2.82-3.76-2.82" style="stroke:#000;fill:none;stroke-linejoin:round;stroke-width:2px"/><path d="M268 6.76c-2.09 0-3.76 1.2-3.76 2.82 0-1.62-1.66-2.82-3.76-2.82m11.33 13.38c-2.62 0-4.71 1.59-4.71 3.76 0-2.17-2.08-3.76-4.7-3.76" style="fill:none;stroke-linejoin:round;stroke-width:2px;stroke:#ffd400"/><path class="cls-3" d="M246.71 10.82s-6.07 1.14-6.44 2.11 3.4 5.86 3.4 5.86-5.07-3.5-6-3.07-1.74 6.55-1.74 6.55-1.14-6.07-2.1-6.44-5.87 3.4-5.87 3.4 3.51-5.07 3.07-6-6.55-1.74-6.55-1.74 6.07-1.14 6.44-2.1-3.4-5.87-3.4-5.87 5.07 3.51 6.05 3.07 1.7-6.59 1.7-6.59 1.13 6.07 2.1 6.44S243.23 3 243.23 3s-3.5 5.07-3.07 6.05 6.55 1.77 6.55 1.77Z"/><circle class="cls-4" cx="235.58" cy="11.14" r="3.43"/><path d="m254 35.06 5.81-9.78a.34.34 0 0 1 .47-.11l3 2a.47.47 0 0 1 .1.1l4.42 7.05a.34.34 0 0 0 .29.16h2.76a.32.32 0 0 1 .28.15l6.14 9.13h-20.53"/><path class="cls-3" d="m259.62 43.75-9.29-14.45a.33.33 0 0 0-.28-.15h-2.77A.32.32 0 0 1 247 29l-4.95-6.93a.33.33 0 0 0-.42-.1l-1.75.87a.37.37 0 0 0-.13.12l-1.94 2.9a.31.31 0 0 1-.27.15h-1.68a.34.34 0 0 0-.31.21L231.78 36a.39.39 0 0 1-.14.17l-2.24 1.3a.38.38 0 0 0-.15.18l-1.94 6.13Z"/><path d="M225.57 45.41h53.49v2.29h-53.49z"/><path class="cls-3" d="M225.57 47.71h53.49V50h-53.49z"/><path class="cls-4" d="M225.57 43.75h53.49v1.67h-53.49z"/></g></g></svg>